<svg xmlns="http://www.w3.org/2000/svg" xmlns:xlink="http://www.w3.org/1999/xlink" width="1920" zoomAndPan="magnify" viewBox="0 0 1440 809.999993" height="1080" preserveAspectRatio="xMidYMid meet" version="1.0"><defs><g/><clipPath id="51985289e8"><path d="M 412.746094 32 L 641.367188 32 L 641.367188 293.496094 L 412.746094 293.496094 Z M 412.746094 32 " clip-rule="nonzero"/></clipPath><clipPath id="ead0341d68"><path d="M 412.746094 162.851562 L 641.367188 32.210938 L 641.367188 293.496094 Z M 412.746094 162.851562 " clip-rule="nonzero"/></clipPath><clipPath id="18c5764eee"><path d="M 0.746094 0.121094 L 229.367188 0.121094 L 229.367188 261.496094 L 0.746094 261.496094 Z M 0.746094 0.121094 " clip-rule="nonzero"/></clipPath><clipPath id="e131e6e2ea"><path d="M 0.746094 130.851562 L 229.367188 0.210938 L 229.367188 261.496094 Z M 0.746094 130.851562 " clip-rule="nonzero"/></clipPath><clipPath id="ee0c252467"><rect x="0" width="230" y="0" height="262"/></clipPath><clipPath id="4995652171"><path d="M 411 30 L 415 30 L 415 295.160156 L 411 295.160156 Z M 411 30 " clip-rule="nonzero"/></clipPath><clipPath id="a5acd86f29"><path d="M 0.558594 161 L 1036 161 L 1036 165 L 0.558594 165 Z M 0.558594 161 " clip-rule="nonzero"/></clipPath><clipPath id="807b0dc267"><rect x="0" width="1037" y="0" height="296"/></clipPath><clipPath id="71ccbbf38c"><path d="M 696.519531 592.460938 L 743.769531 592.460938 L 743.769531 701.960938 L 696.519531 701.960938 Z M 696.519531 592.460938 " clip-rule="nonzero"/></clipPath></defs><rect x="-144" width="1728" fill="#ffffff" y="-80.999999" height="971.999992" fill-opacity="1"/><rect x="-144" width="1728" fill="#1c2542" y="-80.999999" height="971.999992" fill-opacity="1"/><g transform="matrix(1, 0, 0, 1, 202, 169)"><g clip-path="url(#807b0dc267)"><g clip-path="url(#51985289e8)"><g clip-path="url(#ead0341d68)"><g transform="matrix(1, 0, 0, 1, 412, 32)"><g clip-path="url(#ee0c252467)"><g clip-path="url(#18c5764eee)"><g clip-path="url(#e131e6e2ea)"><path fill="#5dbfbe" d="M 0.746094 261.496094 L 0.746094 -0.171875 L 229.367188 -0.171875 L 229.367188 261.496094 Z M 0.746094 261.496094 " fill-opacity="1" fill-rule="nonzero"/></g></g></g></g></g></g><g clip-path="url(#4995652171)"><path stroke-linecap="butt" transform="matrix(0, 0.806432, -0.806432, 0, 414.357367, 32.210962)" fill="none" stroke-linejoin="miter" d="M -0.0000303278 1.998027 L 324.001357 1.998027 " stroke="#5dbfbe" stroke-width="4" stroke-opacity="1" stroke-miterlimit="4"/></g><g clip-path="url(#a5acd86f29)"><path stroke-linecap="butt" transform="matrix(0.806432, 0, 0, 0.806432, 2.230138, 161.240121)" fill="none" stroke-linejoin="miter" d="M 0.000410711 1.998236 L 1279.139615 1.998236 " stroke="#5dbfbe" stroke-width="4" stroke-opacity="1" stroke-miterlimit="4"/></g><g fill="#feffff" fill-opacity="1"><g transform="translate(809.320115, 33.124917)"><g><path d="M 20.625 0 L 16.15625 0 L 14.546875 -4.953125 L 6.3125 -4.953125 L 4.6875 0 L 0.328125 0 L 7.75 -21.5 L 13.203125 -21.5 Z M 10.21875 -17.015625 L 7.453125 -8.53125 L 13.359375 -8.53125 L 10.578125 -17.015625 Z M 10.21875 -17.015625 "/></g></g></g><g fill="#feffff" fill-opacity="1"><g transform="translate(830.265536, 33.124917)"><g><path d="M 2.34375 0 L 2.34375 -16.21875 L 6.25 -16.21875 L 6.25 -13.828125 L 6.5625 -13.765625 C 7.570312 -15.609375 9.207031 -16.53125 11.46875 -16.53125 C 13.34375 -16.53125 14.71875 -16.019531 15.59375 -15 C 16.46875 -13.976562 16.90625 -12.492188 16.90625 -10.546875 L 16.90625 0 L 12.828125 0 L 12.828125 -10.046875 C 12.828125 -11.117188 12.613281 -11.890625 12.1875 -12.359375 C 11.757812 -12.835938 11.066406 -13.078125 10.109375 -13.078125 C 8.941406 -13.078125 8.03125 -12.703125 7.375 -11.953125 C 6.726562 -11.203125 6.40625 -10.015625 6.40625 -8.390625 L 6.40625 0 Z M 2.34375 0 "/></g></g></g><g fill="#feffff" fill-opacity="1"><g transform="translate(849.256045, 33.124917)"><g><path d="M 9.421875 0.3125 C 7.835938 0.3125 6.441406 -0.0078125 5.234375 -0.65625 C 4.035156 -1.3125 3.101562 -2.269531 2.4375 -3.53125 C 1.78125 -4.789062 1.453125 -6.3125 1.453125 -8.09375 C 1.453125 -9.882812 1.78125 -11.410156 2.4375 -12.671875 C 3.101562 -13.929688 4.035156 -14.890625 5.234375 -15.546875 C 6.441406 -16.203125 7.835938 -16.53125 9.421875 -16.53125 C 11.015625 -16.53125 12.410156 -16.203125 13.609375 -15.546875 C 14.804688 -14.890625 15.738281 -13.929688 16.40625 -12.671875 C 17.070312 -11.410156 17.40625 -9.882812 17.40625 -8.09375 C 17.40625 -6.3125 17.070312 -4.789062 16.40625 -3.53125 C 15.738281 -2.269531 14.804688 -1.3125 13.609375 -0.65625 C 12.410156 -0.0078125 11.015625 0.3125 9.421875 0.3125 Z M 9.421875 -3.140625 C 11.941406 -3.140625 13.203125 -4.789062 13.203125 -8.09375 C 13.203125 -9.8125 12.878906 -11.066406 12.234375 -11.859375 C 11.585938 -12.660156 10.648438 -13.0625 9.421875 -13.0625 C 6.898438 -13.0625 5.640625 -11.40625 5.640625 -8.09375 C 5.640625 -4.789062 6.898438 -3.140625 9.421875 -3.140625 Z M 9.421875 -3.140625 "/></g></g></g><g fill="#feffff" fill-opacity="1"><g transform="translate(868.099568, 33.124917)"><g><path d="M 8.015625 0.3125 C 6.734375 0.3125 5.597656 0 4.609375 -0.625 C 3.617188 -1.25 2.84375 -2.191406 2.28125 -3.453125 C 1.726562 -4.710938 1.453125 -6.257812 1.453125 -8.09375 C 1.453125 -9.945312 1.738281 -11.503906 2.3125 -12.765625 C 2.882812 -14.023438 3.675781 -14.96875 4.6875 -15.59375 C 5.707031 -16.21875 6.882812 -16.53125 8.21875 -16.53125 C 9.226562 -16.53125 10.101562 -16.351562 10.84375 -16 C 11.582031 -15.65625 12.207031 -15.113281 12.71875 -14.375 L 13.03125 -14.453125 L 13.03125 -22.734375 L 17.09375 -22.734375 L 17.09375 0 L 13.03125 0 L 13.03125 -2.109375 L 12.71875 -2.15625 C 12.269531 -1.394531 11.648438 -0.789062 10.859375 -0.34375 C 10.078125 0.09375 9.128906 0.3125 8.015625 0.3125 Z M 9.328125 -3.140625 C 10.484375 -3.140625 11.394531 -3.546875 12.0625 -4.359375 C 12.726562 -5.179688 13.0625 -6.425781 13.0625 -8.09375 C 13.0625 -9.757812 12.726562 -11.003906 12.0625 -11.828125 C 11.394531 -12.648438 10.484375 -13.0625 9.328125 -13.0625 C 8.140625 -13.0625 7.226562 -12.660156 6.59375 -11.859375 C 5.957031 -11.066406 5.640625 -9.8125 5.640625 -8.09375 C 5.640625 -6.394531 5.957031 -5.144531 6.59375 -4.34375 C 7.226562 -3.539062 8.140625 -3.140625 9.328125 -3.140625 Z M 9.328125 -3.140625 "/></g></g></g><g fill="#feffff" fill-opacity="1"><g transform="translate(887.531033, 33.124917)"><g><path d="M 16.03125 -7.1875 L 5.59375 -7.1875 C 5.71875 -5.78125 6.125 -4.753906 6.8125 -4.109375 C 7.5 -3.460938 8.429688 -3.140625 9.609375 -3.140625 C 10.546875 -3.140625 11.300781 -3.3125 11.875 -3.65625 C 12.457031 -4.007812 12.925781 -4.539062 13.28125 -5.25 L 13.578125 -5.25 L 16.296875 -3.515625 C 15.765625 -2.378906 14.960938 -1.457031 13.890625 -0.75 C 12.828125 -0.0390625 11.398438 0.3125 9.609375 0.3125 C 7.929688 0.3125 6.484375 -0.00390625 5.265625 -0.640625 C 4.046875 -1.285156 3.101562 -2.234375 2.4375 -3.484375 C 1.78125 -4.742188 1.453125 -6.28125 1.453125 -8.09375 C 1.453125 -9.9375 1.800781 -11.488281 2.5 -12.75 C 3.195312 -14.019531 4.132812 -14.96875 5.3125 -15.59375 C 6.5 -16.21875 7.835938 -16.53125 9.328125 -16.53125 C 11.617188 -16.53125 13.375 -15.921875 14.59375 -14.703125 C 15.8125 -13.484375 16.421875 -11.695312 16.421875 -9.34375 C 16.421875 -8.5 16.390625 -7.835938 16.328125 -7.359375 Z M 12.53125 -9.828125 C 12.488281 -11.054688 12.195312 -11.953125 11.65625 -12.515625 C 11.125 -13.078125 10.347656 -13.359375 9.328125 -13.359375 C 7.265625 -13.359375 6.050781 -12.179688 5.6875 -9.828125 Z M 12.53125 -9.828125 "/></g></g></g><g fill="#feffff" fill-opacity="1"><g transform="translate(838.616286, 75.059392)"><g><path d="M 6.578125 3.078125 C 5.242188 1.429688 4.164062 -0.40625 3.34375 -2.4375 C 2.53125 -4.46875 2.125 -6.929688 2.125 -9.828125 C 2.125 -12.722656 2.53125 -15.1875 3.34375 -17.21875 C 4.164062 -19.25 5.242188 -21.085938 6.578125 -22.734375 L 9.703125 -22.734375 L 9.765625 -22.421875 C 8.703125 -20.609375 7.878906 -18.722656 7.296875 -16.765625 C 6.722656 -14.816406 6.4375 -12.503906 6.4375 -9.828125 C 6.4375 -7.148438 6.722656 -4.832031 7.296875 -2.875 C 7.878906 -0.925781 8.703125 0.953125 9.765625 2.765625 L 9.703125 3.078125 Z M 6.578125 3.078125 "/></g></g></g><g fill="#feffff" fill-opacity="1"><g transform="translate(849.302128, 75.059392)"><g><path d="M 9.6875 -12.4375 L 14.5625 -12.4375 L 14.5625 -9.0625 L 9.6875 -9.0625 L 9.6875 -4.109375 L 6.15625 -4.109375 L 6.15625 -9.0625 L 1.28125 -9.0625 L 1.28125 -12.4375 L 6.15625 -12.4375 L 6.15625 -17.375 L 9.6875 -17.375 Z M 9.6875 -12.4375 "/></g></g></g><g fill="#feffff" fill-opacity="1"><g transform="translate(865.161854, 75.059392)"><g><path d="M 0.921875 2.765625 C 1.597656 1.585938 2.175781 0.40625 2.65625 -0.78125 C 3.132812 -1.96875 3.519531 -3.3125 3.8125 -4.8125 C 4.101562 -6.3125 4.25 -7.984375 4.25 -9.828125 C 4.25 -11.660156 4.101562 -13.328125 3.8125 -14.828125 C 3.519531 -16.335938 3.132812 -17.6875 2.65625 -18.875 C 2.1875 -20.0625 1.609375 -21.242188 0.921875 -22.421875 L 0.984375 -22.734375 L 4.109375 -22.734375 C 4.941406 -21.679688 5.679688 -20.566406 6.328125 -19.390625 C 6.984375 -18.222656 7.519531 -16.835938 7.9375 -15.234375 C 8.351562 -13.628906 8.5625 -11.828125 8.5625 -9.828125 C 8.5625 -6.929688 8.148438 -4.46875 7.328125 -2.4375 C 6.503906 -0.40625 5.429688 1.429688 4.109375 3.078125 L 0.984375 3.078125 Z M 0.921875 2.765625 "/></g></g></g><g fill="#feffff" fill-opacity="1"><g transform="translate(120.514815, 37.318384)"><g><path d="M 11.75 0.3125 C 9.769531 0.3125 8.023438 -0.0976562 6.515625 -0.921875 C 5.003906 -1.742188 3.820312 -2.976562 2.96875 -4.625 C 2.113281 -6.28125 1.6875 -8.320312 1.6875 -10.75 C 1.6875 -13.164062 2.113281 -15.195312 2.96875 -16.84375 C 3.820312 -18.5 5.003906 -19.738281 6.515625 -20.5625 C 8.023438 -21.382812 9.769531 -21.796875 11.75 -21.796875 C 13.8125 -21.796875 15.566406 -21.390625 17.015625 -20.578125 C 18.460938 -19.773438 19.492188 -18.546875 20.109375 -16.890625 L 17.015625 -15 L 16.640625 -15.015625 C 16.179688 -16.128906 15.554688 -16.925781 14.765625 -17.40625 C 13.972656 -17.894531 12.96875 -18.140625 11.75 -18.140625 C 9.96875 -18.140625 8.578125 -17.546875 7.578125 -16.359375 C 6.578125 -15.179688 6.078125 -13.3125 6.078125 -10.75 C 6.078125 -8.1875 6.578125 -6.3125 7.578125 -5.125 C 8.578125 -3.945312 9.96875 -3.359375 11.75 -3.359375 C 14.539062 -3.359375 16.25 -4.71875 16.875 -7.4375 L 17.25 -7.4375 L 20.375 -5.8125 C 19.789062 -3.769531 18.785156 -2.238281 17.359375 -1.21875 C 15.941406 -0.195312 14.070312 0.3125 11.75 0.3125 Z M 11.75 0.3125 "/></g></g></g><g fill="#feffff" fill-opacity="1"><g transform="translate(141.592516, 37.318384)"><g><path d="M 6.328125 0.3125 C 5.285156 0.3125 4.378906 0.117188 3.609375 -0.265625 C 2.847656 -0.648438 2.257812 -1.210938 1.84375 -1.953125 C 1.4375 -2.691406 1.234375 -3.578125 1.234375 -4.609375 C 1.234375 -5.578125 1.4375 -6.382812 1.84375 -7.03125 C 2.257812 -7.6875 2.898438 -8.222656 3.765625 -8.640625 C 4.628906 -9.054688 5.753906 -9.375 7.140625 -9.59375 C 8.109375 -9.75 8.84375 -9.921875 9.34375 -10.109375 C 9.851562 -10.296875 10.195312 -10.503906 10.375 -10.734375 C 10.550781 -10.972656 10.640625 -11.273438 10.640625 -11.640625 C 10.640625 -12.160156 10.457031 -12.554688 10.09375 -12.828125 C 9.738281 -13.109375 9.140625 -13.25 8.296875 -13.25 C 7.390625 -13.25 6.53125 -13.046875 5.71875 -12.640625 C 4.90625 -12.242188 4.203125 -11.71875 3.609375 -11.0625 L 3.3125 -11.0625 L 1.609375 -13.625 C 2.429688 -14.539062 3.429688 -15.253906 4.609375 -15.765625 C 5.796875 -16.273438 7.09375 -16.53125 8.5 -16.53125 C 10.644531 -16.53125 12.195312 -16.070312 13.15625 -15.15625 C 14.113281 -14.25 14.59375 -12.957031 14.59375 -11.28125 L 14.59375 -4.234375 C 14.59375 -3.503906 14.910156 -3.140625 15.546875 -3.140625 C 15.796875 -3.140625 16.039062 -3.1875 16.28125 -3.28125 L 16.484375 -3.21875 L 16.78125 -0.375 C 16.550781 -0.226562 16.234375 -0.109375 15.828125 -0.015625 C 15.429688 0.078125 14.992188 0.125 14.515625 0.125 C 13.546875 0.125 12.785156 -0.0625 12.234375 -0.4375 C 11.691406 -0.8125 11.304688 -1.394531 11.078125 -2.1875 L 10.765625 -2.21875 C 9.972656 -0.53125 8.492188 0.3125 6.328125 0.3125 Z M 7.609375 -2.734375 C 8.554688 -2.734375 9.3125 -3.046875 9.875 -3.671875 C 10.4375 -4.304688 10.71875 -5.191406 10.71875 -6.328125 L 10.71875 -7.96875 L 10.4375 -8.03125 C 10.195312 -7.832031 9.875 -7.664062 9.46875 -7.53125 C 9.070312 -7.40625 8.503906 -7.273438 7.765625 -7.140625 C 6.878906 -6.992188 6.242188 -6.738281 5.859375 -6.375 C 5.472656 -6.019531 5.28125 -5.515625 5.28125 -4.859375 C 5.28125 -4.171875 5.484375 -3.644531 5.890625 -3.28125 C 6.304688 -2.914062 6.878906 -2.734375 7.609375 -2.734375 Z M 7.609375 -2.734375 "/></g></g></g><g fill="#feffff" fill-opacity="1"><g transform="translate(158.495833, 37.318384)"><g><path d="M 11.1875 -3.859375 L 12.25 -0.859375 C 11.800781 -0.492188 11.242188 -0.207031 10.578125 0 C 9.910156 0.207031 9.160156 0.3125 8.328125 0.3125 C 6.566406 0.3125 5.226562 -0.164062 4.3125 -1.125 C 3.40625 -2.082031 2.953125 -3.472656 2.953125 -5.296875 L 2.953125 -13 L 0.484375 -13 L 0.484375 -16.234375 L 2.953125 -16.234375 L 2.953125 -19.390625 L 7.03125 -20.046875 L 7.03125 -16.234375 L 11.625 -16.234375 L 11.625 -13 L 7.03125 -13 L 7.03125 -5.59375 C 7.03125 -4.78125 7.195312 -4.191406 7.53125 -3.828125 C 7.863281 -3.460938 8.347656 -3.28125 8.984375 -3.28125 C 9.710938 -3.28125 10.34375 -3.472656 10.875 -3.859375 Z M 11.1875 -3.859375 "/></g></g></g><g fill="#feffff" fill-opacity="1"><g transform="translate(171.092485, 37.318384)"><g><path d="M 2.34375 0 L 2.34375 -22.734375 L 6.40625 -22.734375 L 6.40625 -14.09375 L 6.71875 -14.046875 C 7.257812 -14.835938 7.921875 -15.445312 8.703125 -15.875 C 9.484375 -16.3125 10.429688 -16.53125 11.546875 -16.53125 C 15.117188 -16.53125 16.90625 -14.5 16.90625 -10.4375 L 16.90625 0 L 12.828125 0 L 12.828125 -9.921875 C 12.828125 -11.023438 12.609375 -11.828125 12.171875 -12.328125 C 11.734375 -12.828125 11.046875 -13.078125 10.109375 -13.078125 C 8.972656 -13.078125 8.070312 -12.695312 7.40625 -11.9375 C 6.738281 -11.1875 6.40625 -10.003906 6.40625 -8.390625 L 6.40625 0 Z M 2.34375 0 "/></g></g></g><g fill="#feffff" fill-opacity="1"><g transform="translate(190.082994, 37.318384)"><g><path d="M 9.421875 0.3125 C 7.835938 0.3125 6.441406 -0.0078125 5.234375 -0.65625 C 4.035156 -1.3125 3.101562 -2.269531 2.4375 -3.53125 C 1.78125 -4.789062 1.453125 -6.3125 1.453125 -8.09375 C 1.453125 -9.882812 1.78125 -11.410156 2.4375 -12.671875 C 3.101562 -13.929688 4.035156 -14.890625 5.234375 -15.546875 C 6.441406 -16.203125 7.835938 -16.53125 9.421875 -16.53125 C 11.015625 -16.53125 12.410156 -16.203125 13.609375 -15.546875 C 14.804688 -14.890625 15.738281 -13.929688 16.40625 -12.671875 C 17.070312 -11.410156 17.40625 -9.882812 17.40625 -8.09375 C 17.40625 -6.3125 17.070312 -4.789062 16.40625 -3.53125 C 15.738281 -2.269531 14.804688 -1.3125 13.609375 -0.65625 C 12.410156 -0.0078125 11.015625 0.3125 9.421875 0.3125 Z M 9.421875 -3.140625 C 11.941406 -3.140625 13.203125 -4.789062 13.203125 -8.09375 C 13.203125 -9.8125 12.878906 -11.066406 12.234375 -11.859375 C 11.585938 -12.660156 10.648438 -13.0625 9.421875 -13.0625 C 6.898438 -13.0625 5.640625 -11.40625 5.640625 -8.09375 C 5.640625 -4.789062 6.898438 -3.140625 9.421875 -3.140625 Z M 9.421875 -3.140625 "/></g></g></g><g fill="#feffff" fill-opacity="1"><g transform="translate(208.926517, 37.318384)"><g><path d="M 8.015625 0.3125 C 6.734375 0.3125 5.597656 0 4.609375 -0.625 C 3.617188 -1.25 2.84375 -2.191406 2.28125 -3.453125 C 1.726562 -4.710938 1.453125 -6.257812 1.453125 -8.09375 C 1.453125 -9.945312 1.738281 -11.503906 2.3125 -12.765625 C 2.882812 -14.023438 3.675781 -14.96875 4.6875 -15.59375 C 5.707031 -16.21875 6.882812 -16.53125 8.21875 -16.53125 C 9.226562 -16.53125 10.101562 -16.351562 10.84375 -16 C 11.582031 -15.65625 12.207031 -15.113281 12.71875 -14.375 L 13.03125 -14.453125 L 13.03125 -22.734375 L 17.09375 -22.734375 L 17.09375 0 L 13.03125 0 L 13.03125 -2.109375 L 12.71875 -2.15625 C 12.269531 -1.394531 11.648438 -0.789062 10.859375 -0.34375 C 10.078125 0.09375 9.128906 0.3125 8.015625 0.3125 Z M 9.328125 -3.140625 C 10.484375 -3.140625 11.394531 -3.546875 12.0625 -4.359375 C 12.726562 -5.179688 13.0625 -6.425781 13.0625 -8.09375 C 13.0625 -9.757812 12.726562 -11.003906 12.0625 -11.828125 C 11.394531 -12.648438 10.484375 -13.0625 9.328125 -13.0625 C 8.140625 -13.0625 7.226562 -12.660156 6.59375 -11.859375 C 5.957031 -11.066406 5.640625 -9.8125 5.640625 -8.09375 C 5.640625 -6.394531 5.957031 -5.144531 6.59375 -4.34375 C 7.226562 -3.539062 8.140625 -3.140625 9.328125 -3.140625 Z M 9.328125 -3.140625 "/></g></g></g><g fill="#feffff" fill-opacity="1"><g transform="translate(228.357982, 37.318384)"><g><path d="M 16.03125 -7.1875 L 5.59375 -7.1875 C 5.71875 -5.78125 6.125 -4.753906 6.8125 -4.109375 C 7.5 -3.460938 8.429688 -3.140625 9.609375 -3.140625 C 10.546875 -3.140625 11.300781 -3.3125 11.875 -3.65625 C 12.457031 -4.007812 12.925781 -4.539062 13.28125 -5.25 L 13.578125 -5.25 L 16.296875 -3.515625 C 15.765625 -2.378906 14.960938 -1.457031 13.890625 -0.75 C 12.828125 -0.0390625 11.398438 0.3125 9.609375 0.3125 C 7.929688 0.3125 6.484375 -0.00390625 5.265625 -0.640625 C 4.046875 -1.285156 3.101562 -2.234375 2.4375 -3.484375 C 1.78125 -4.742188 1.453125 -6.28125 1.453125 -8.09375 C 1.453125 -9.9375 1.800781 -11.488281 2.5 -12.75 C 3.195312 -14.019531 4.132812 -14.96875 5.3125 -15.59375 C 6.5 -16.21875 7.835938 -16.53125 9.328125 -16.53125 C 11.617188 -16.53125 13.375 -15.921875 14.59375 -14.703125 C 15.8125 -13.484375 16.421875 -11.695312 16.421875 -9.34375 C 16.421875 -8.5 16.390625 -7.835938 16.328125 -7.359375 Z M 12.53125 -9.828125 C 12.488281 -11.054688 12.195312 -11.953125 11.65625 -12.515625 C 11.125 -13.078125 10.347656 -13.359375 9.328125 -13.359375 C 7.265625 -13.359375 6.050781 -12.179688 5.6875 -9.828125 Z M 12.53125 -9.828125 "/></g></g></g><g fill="#feffff" fill-opacity="1"><g transform="translate(166.758662, 79.252859)"><g><path d="M 6.578125 3.078125 C 5.242188 1.429688 4.164062 -0.40625 3.34375 -2.4375 C 2.53125 -4.46875 2.125 -6.929688 2.125 -9.828125 C 2.125 -12.722656 2.53125 -15.1875 3.34375 -17.21875 C 4.164062 -19.25 5.242188 -21.085938 6.578125 -22.734375 L 9.703125 -22.734375 L 9.765625 -22.421875 C 8.703125 -20.609375 7.878906 -18.722656 7.296875 -16.765625 C 6.722656 -14.816406 6.4375 -12.503906 6.4375 -9.828125 C 6.4375 -7.148438 6.722656 -4.832031 7.296875 -2.875 C 7.878906 -0.925781 8.703125 0.953125 9.765625 2.765625 L 9.703125 3.078125 Z M 6.578125 3.078125 "/></g></g></g><g fill="#feffff" fill-opacity="1"><g transform="translate(177.444504, 79.252859)"><g><path d="M 10.296875 -8.640625 L 1.28125 -8.640625 L 1.28125 -12.234375 L 10.296875 -12.234375 Z M 10.296875 -8.640625 "/></g></g></g><g fill="#feffff" fill-opacity="1"><g transform="translate(189.041656, 79.252859)"><g><path d="M 0.921875 2.765625 C 1.597656 1.585938 2.175781 0.40625 2.65625 -0.78125 C 3.132812 -1.96875 3.519531 -3.3125 3.8125 -4.8125 C 4.101562 -6.3125 4.25 -7.984375 4.25 -9.828125 C 4.25 -11.660156 4.101562 -13.328125 3.8125 -14.828125 C 3.519531 -16.335938 3.132812 -17.6875 2.65625 -18.875 C 2.1875 -20.0625 1.609375 -21.242188 0.921875 -22.421875 L 0.984375 -22.734375 L 4.109375 -22.734375 C 4.941406 -21.679688 5.679688 -20.566406 6.328125 -19.390625 C 6.984375 -18.222656 7.519531 -16.835938 7.9375 -15.234375 C 8.351562 -13.628906 8.5625 -11.828125 8.5625 -9.828125 C 8.5625 -6.929688 8.148438 -4.46875 7.328125 -2.4375 C 6.503906 -0.40625 5.429688 1.429688 4.109375 3.078125 L 0.984375 3.078125 Z M 0.921875 2.765625 "/></g></g></g></g></g><path stroke-linecap="butt" transform="matrix(-0.75, 0, 0, -0.75, 975.595205, 505.244995)" fill="none" stroke-linejoin="miter" d="M 0.00194019 1.998535 L 679.600933 1.998535 " stroke="#ffde59" stroke-width="4" stroke-opacity="1" stroke-miterlimit="4"/><path stroke-linecap="round" transform="matrix(-0.75, 0, 0, -0.75, 975.595205, 505.244995)" fill="none" stroke-linejoin="round" d="M 671.600932 -4.001466 L 679.600933 1.998535 L 671.600932 7.998535 " stroke="#ffde59" stroke-width="4" stroke-opacity="1" stroke-miterlimit="4"/><g fill="#ffde59" fill-opacity="1"><g transform="translate(582.285097, 571.936047)"><g><path d="M 9.796875 -19.984375 C 13.035156 -19.984375 15.507812 -19.144531 17.21875 -17.46875 C 18.925781 -15.789062 19.78125 -13.300781 19.78125 -10 C 19.78125 -6.695312 18.925781 -4.203125 17.21875 -2.515625 C 15.507812 -0.835938 13.035156 0 9.796875 0 L 2.59375 0 L 2.59375 -19.984375 Z M 9.5625 -3.328125 C 11.613281 -3.328125 13.148438 -3.851562 14.171875 -4.90625 C 15.191406 -5.957031 15.703125 -7.65625 15.703125 -10 C 15.703125 -12.34375 15.191406 -14.039062 14.171875 -15.09375 C 13.148438 -16.144531 11.613281 -16.671875 9.5625 -16.671875 L 6.546875 -16.671875 L 6.546875 -3.328125 Z M 9.5625 -3.328125 "/></g></g></g><g fill="#ffde59" fill-opacity="1"><g transform="translate(603.651261, 571.936047)"><g><path d="M 4.0625 -16.890625 C 3.375 -16.890625 2.816406 -17.09375 2.390625 -17.5 C 1.960938 -17.914062 1.75 -18.453125 1.75 -19.109375 C 1.75 -19.753906 1.960938 -20.285156 2.390625 -20.703125 C 2.816406 -21.117188 3.375 -21.328125 4.0625 -21.328125 C 4.519531 -21.328125 4.925781 -21.226562 5.28125 -21.03125 C 5.632812 -20.84375 5.910156 -20.582031 6.109375 -20.25 C 6.304688 -19.914062 6.40625 -19.535156 6.40625 -19.109375 C 6.40625 -18.679688 6.304688 -18.296875 6.109375 -17.953125 C 5.910156 -17.617188 5.632812 -17.359375 5.28125 -17.171875 C 4.925781 -16.984375 4.519531 -16.890625 4.0625 -16.890625 Z M 2.171875 0 L 2.171875 -15.078125 L 5.96875 -15.078125 L 5.96875 0 Z M 2.171875 0 "/></g></g></g><g fill="#ffde59" fill-opacity="1"><g transform="translate(611.771221, 571.936047)"><g><path d="M 2.171875 0 L 2.171875 -15.078125 L 5.859375 -15.078125 L 5.859375 -12.84375 L 6.140625 -12.78125 C 6.503906 -13.625 6.984375 -14.238281 7.578125 -14.625 C 8.171875 -15.019531 8.890625 -15.21875 9.734375 -15.21875 C 10.585938 -15.21875 11.238281 -15.070312 11.6875 -14.78125 L 11.046875 -11.515625 L 10.765625 -11.453125 C 10.515625 -11.554688 10.273438 -11.628906 10.046875 -11.671875 C 9.816406 -11.722656 9.539062 -11.75 9.21875 -11.75 C 8.15625 -11.75 7.347656 -11.375 6.796875 -10.625 C 6.242188 -9.882812 5.96875 -8.695312 5.96875 -7.0625 L 5.96875 0 Z M 2.171875 0 "/></g></g></g><g fill="#ffde59" fill-opacity="1"><g transform="translate(623.199302, 571.936047)"><g><path d="M 14.90625 -6.6875 L 5.203125 -6.6875 C 5.316406 -5.375 5.691406 -4.414062 6.328125 -3.8125 C 6.960938 -3.21875 7.832031 -2.921875 8.9375 -2.921875 C 9.800781 -2.921875 10.503906 -3.082031 11.046875 -3.40625 C 11.585938 -3.726562 12.019531 -4.21875 12.34375 -4.875 L 12.640625 -4.875 L 15.15625 -3.265625 C 14.65625 -2.210938 13.910156 -1.359375 12.921875 -0.703125 C 11.929688 -0.046875 10.601562 0.28125 8.9375 0.28125 C 7.382812 0.28125 6.039062 -0.0078125 4.90625 -0.59375 C 3.769531 -1.1875 2.894531 -2.066406 2.28125 -3.234375 C 1.664062 -4.410156 1.359375 -5.84375 1.359375 -7.53125 C 1.359375 -9.25 1.679688 -10.691406 2.328125 -11.859375 C 2.972656 -13.035156 3.847656 -13.914062 4.953125 -14.5 C 6.054688 -15.082031 7.296875 -15.375 8.671875 -15.375 C 10.804688 -15.375 12.4375 -14.804688 13.5625 -13.671875 C 14.695312 -12.546875 15.265625 -10.890625 15.265625 -8.703125 C 15.265625 -7.898438 15.238281 -7.28125 15.1875 -6.84375 Z M 11.65625 -9.140625 C 11.613281 -10.285156 11.34375 -11.117188 10.84375 -11.640625 C 10.351562 -12.160156 9.628906 -12.421875 8.671875 -12.421875 C 6.753906 -12.421875 5.628906 -11.328125 5.296875 -9.140625 Z M 11.65625 -9.140625 "/></g></g></g><g fill="#ffde59" fill-opacity="1"><g transform="translate(639.589598, 571.936047)"><g><path d="M 8.796875 0.28125 C 7.335938 0.28125 6.046875 -0.0195312 4.921875 -0.625 C 3.796875 -1.226562 2.921875 -2.117188 2.296875 -3.296875 C 1.671875 -4.472656 1.359375 -5.882812 1.359375 -7.53125 C 1.359375 -9.1875 1.671875 -10.601562 2.296875 -11.78125 C 2.921875 -12.957031 3.789062 -13.847656 4.90625 -14.453125 C 6.019531 -15.066406 7.289062 -15.375 8.71875 -15.375 C 11.90625 -15.375 13.941406 -14.21875 14.828125 -11.90625 L 12.234375 -10.046875 L 11.953125 -10.046875 C 11.640625 -10.753906 11.234375 -11.28125 10.734375 -11.625 C 10.242188 -11.976562 9.570312 -12.15625 8.71875 -12.15625 C 7.625 -12.15625 6.769531 -11.773438 6.15625 -11.015625 C 5.550781 -10.265625 5.25 -9.101562 5.25 -7.53125 C 5.25 -5.976562 5.554688 -4.820312 6.171875 -4.0625 C 6.796875 -3.300781 7.671875 -2.921875 8.796875 -2.921875 C 9.609375 -2.921875 10.300781 -3.140625 10.875 -3.578125 C 11.445312 -4.023438 11.851562 -4.664062 12.09375 -5.5 L 12.390625 -5.53125 L 15.078125 -4.046875 C 14.691406 -2.773438 13.984375 -1.734375 12.953125 -0.921875 C 11.921875 -0.117188 10.535156 0.28125 8.796875 0.28125 Z M 8.796875 0.28125 "/></g></g></g><g fill="#ffde59" fill-opacity="1"><g transform="translate(655.132357, 571.936047)"><g><path d="M 10.40625 -3.59375 L 11.390625 -0.796875 C 10.984375 -0.453125 10.46875 -0.1875 9.84375 0 C 9.226562 0.1875 8.523438 0.28125 7.734375 0.28125 C 6.109375 0.28125 4.867188 -0.160156 4.015625 -1.046875 C 3.171875 -1.929688 2.75 -3.222656 2.75 -4.921875 L 2.75 -12.09375 L 0.453125 -12.09375 L 0.453125 -15.09375 L 2.75 -15.09375 L 2.75 -18.03125 L 6.53125 -18.65625 L 6.53125 -15.09375 L 10.8125 -15.09375 L 10.8125 -12.09375 L 6.53125 -12.09375 L 6.53125 -5.203125 C 6.53125 -4.453125 6.6875 -3.90625 7 -3.5625 C 7.3125 -3.21875 7.765625 -3.046875 8.359375 -3.046875 C 9.023438 -3.046875 9.613281 -3.226562 10.125 -3.59375 Z M 10.40625 -3.59375 "/></g></g></g><g fill="#ffde59" fill-opacity="1"><g transform="translate(666.847524, 571.936047)"><g><path d="M 4.0625 -16.890625 C 3.375 -16.890625 2.816406 -17.09375 2.390625 -17.5 C 1.960938 -17.914062 1.75 -18.453125 1.75 -19.109375 C 1.75 -19.753906 1.960938 -20.285156 2.390625 -20.703125 C 2.816406 -21.117188 3.375 -21.328125 4.0625 -21.328125 C 4.519531 -21.328125 4.925781 -21.226562 5.28125 -21.03125 C 5.632812 -20.84375 5.910156 -20.582031 6.109375 -20.25 C 6.304688 -19.914062 6.40625 -19.535156 6.40625 -19.109375 C 6.40625 -18.679688 6.304688 -18.296875 6.109375 -17.953125 C 5.910156 -17.617188 5.632812 -17.359375 5.28125 -17.171875 C 4.925781 -16.984375 4.519531 -16.890625 4.0625 -16.890625 Z M 2.171875 0 L 2.171875 -15.078125 L 5.96875 -15.078125 L 5.96875 0 Z M 2.171875 0 "/></g></g></g><g fill="#ffde59" fill-opacity="1"><g transform="translate(674.967484, 571.936047)"><g><path d="M 8.765625 0.28125 C 7.285156 0.28125 5.988281 -0.0195312 4.875 -0.625 C 3.757812 -1.226562 2.894531 -2.113281 2.28125 -3.28125 C 1.664062 -4.457031 1.359375 -5.875 1.359375 -7.53125 C 1.359375 -9.1875 1.664062 -10.601562 2.28125 -11.78125 C 2.894531 -12.957031 3.757812 -13.847656 4.875 -14.453125 C 5.988281 -15.066406 7.285156 -15.375 8.765625 -15.375 C 10.242188 -15.375 11.539062 -15.066406 12.65625 -14.453125 C 13.769531 -13.847656 14.632812 -12.957031 15.25 -11.78125 C 15.875 -10.601562 16.1875 -9.1875 16.1875 -7.53125 C 16.1875 -5.875 15.875 -4.457031 15.25 -3.28125 C 14.632812 -2.113281 13.769531 -1.226562 12.65625 -0.625 C 11.539062 -0.0195312 10.242188 0.28125 8.765625 0.28125 Z M 8.765625 -2.921875 C 11.109375 -2.921875 12.28125 -4.457031 12.28125 -7.53125 C 12.28125 -9.125 11.976562 -10.289062 11.375 -11.03125 C 10.769531 -11.78125 9.898438 -12.15625 8.765625 -12.15625 C 6.421875 -12.15625 5.25 -10.613281 5.25 -7.53125 C 5.25 -4.457031 6.421875 -2.921875 8.765625 -2.921875 Z M 8.765625 -2.921875 "/></g></g></g><g fill="#ffde59" fill-opacity="1"><g transform="translate(692.492382, 571.936047)"><g><path d="M 2.171875 0 L 2.171875 -15.078125 L 5.8125 -15.078125 L 5.8125 -12.859375 L 6.09375 -12.796875 C 7.03125 -14.515625 8.554688 -15.375 10.671875 -15.375 C 12.410156 -15.375 13.6875 -14.898438 14.5 -13.953125 C 15.3125 -13.003906 15.71875 -11.617188 15.71875 -9.796875 L 15.71875 0 L 11.9375 0 L 11.9375 -9.34375 C 11.9375 -10.34375 11.734375 -11.0625 11.328125 -11.5 C 10.929688 -11.945312 10.289062 -12.171875 9.40625 -12.171875 C 8.320312 -12.171875 7.476562 -11.816406 6.875 -11.109375 C 6.269531 -10.410156 5.96875 -9.3125 5.96875 -7.8125 L 5.96875 0 Z M 2.171875 0 "/></g></g></g><g fill="#ffde59" fill-opacity="1"><g transform="translate(710.153979, 571.936047)"><g/></g></g><g fill="#ffde59" fill-opacity="1"><g transform="translate(716.756579, 571.936047)"><g><path d="M 8.765625 0.28125 C 7.285156 0.28125 5.988281 -0.0195312 4.875 -0.625 C 3.757812 -1.226562 2.894531 -2.113281 2.28125 -3.28125 C 1.664062 -4.457031 1.359375 -5.875 1.359375 -7.53125 C 1.359375 -9.1875 1.664062 -10.601562 2.28125 -11.78125 C 2.894531 -12.957031 3.757812 -13.847656 4.875 -14.453125 C 5.988281 -15.066406 7.285156 -15.375 8.765625 -15.375 C 10.242188 -15.375 11.539062 -15.066406 12.65625 -14.453125 C 13.769531 -13.847656 14.632812 -12.957031 15.25 -11.78125 C 15.875 -10.601562 16.1875 -9.1875 16.1875 -7.53125 C 16.1875 -5.875 15.875 -4.457031 15.25 -3.28125 C 14.632812 -2.113281 13.769531 -1.226562 12.65625 -0.625 C 11.539062 -0.0195312 10.242188 0.28125 8.765625 0.28125 Z M 8.765625 -2.921875 C 11.109375 -2.921875 12.28125 -4.457031 12.28125 -7.53125 C 12.28125 -9.125 11.976562 -10.289062 11.375 -11.03125 C 10.769531 -11.78125 9.898438 -12.15625 8.765625 -12.15625 C 6.421875 -12.15625 5.25 -10.613281 5.25 -7.53125 C 5.25 -4.457031 6.421875 -2.921875 8.765625 -2.921875 Z M 8.765625 -2.921875 "/></g></g></g><g fill="#ffde59" fill-opacity="1"><g transform="translate(734.281476, 571.936047)"><g><path d="M 2.640625 0 L 2.640625 -12.09375 L 0.5 -12.09375 L 0.5 -15.09375 L 2.640625 -15.09375 C 2.484375 -15.726562 2.40625 -16.328125 2.40625 -16.890625 C 2.40625 -17.847656 2.625 -18.664062 3.0625 -19.34375 C 3.5 -20.019531 4.128906 -20.535156 4.953125 -20.890625 C 5.773438 -21.242188 6.75 -21.421875 7.875 -21.421875 C 9.539062 -21.421875 10.785156 -21.132812 11.609375 -20.5625 L 10.71875 -17.78125 L 10.4375 -17.71875 C 9.863281 -18.125 9.140625 -18.328125 8.265625 -18.328125 C 7.578125 -18.328125 7.0625 -18.160156 6.71875 -17.828125 C 6.375 -17.492188 6.203125 -17.039062 6.203125 -16.46875 C 6.203125 -16.21875 6.21875 -15.988281 6.25 -15.78125 C 6.28125 -15.582031 6.335938 -15.351562 6.421875 -15.09375 L 10.734375 -15.09375 L 10.734375 -12.09375 L 6.421875 -12.09375 L 6.421875 0 Z M 2.640625 0 "/></g></g></g><g fill="#ffde59" fill-opacity="1"><g transform="translate(745.16277, 571.936047)"><g/></g></g><g fill="#ffde59" fill-opacity="1"><g transform="translate(751.76537, 571.936047)"><g><path d="M 10.921875 0.28125 C 9.078125 0.28125 7.453125 -0.0976562 6.046875 -0.859375 C 4.648438 -1.628906 3.554688 -2.78125 2.765625 -4.3125 C 1.972656 -5.851562 1.578125 -7.75 1.578125 -10 C 1.578125 -12.25 1.972656 -14.140625 2.765625 -15.671875 C 3.554688 -17.210938 4.648438 -18.363281 6.046875 -19.125 C 7.453125 -19.894531 9.078125 -20.28125 10.921875 -20.28125 C 12.847656 -20.28125 14.484375 -19.898438 15.828125 -19.140625 C 17.171875 -18.390625 18.128906 -17.242188 18.703125 -15.703125 L 15.8125 -13.953125 L 15.484375 -13.953125 C 15.046875 -14.992188 14.460938 -15.738281 13.734375 -16.1875 C 13.003906 -16.644531 12.066406 -16.875 10.921875 -16.875 C 9.265625 -16.875 7.96875 -16.320312 7.03125 -15.21875 C 6.101562 -14.125 5.640625 -12.382812 5.640625 -10 C 5.640625 -7.613281 6.101562 -5.867188 7.03125 -4.765625 C 7.96875 -3.671875 9.265625 -3.125 10.921875 -3.125 C 13.523438 -3.125 15.117188 -4.390625 15.703125 -6.921875 L 16.03125 -6.921875 L 18.953125 -5.40625 C 18.398438 -3.507812 17.460938 -2.085938 16.140625 -1.140625 C 14.828125 -0.191406 13.085938 0.28125 10.921875 0.28125 Z M 10.921875 0.28125 "/></g></g></g><g fill="#ffde59" fill-opacity="1"><g transform="translate(771.368102, 571.936047)"><g><path d="M 6.90625 0.28125 C 5.207031 0.28125 3.953125 -0.175781 3.140625 -1.09375 C 2.335938 -2.019531 1.9375 -3.351562 1.9375 -5.09375 L 1.9375 -15.078125 L 5.734375 -15.078125 L 5.734375 -5.5625 C 5.734375 -4.644531 5.929688 -3.972656 6.328125 -3.546875 C 6.722656 -3.117188 7.332031 -2.90625 8.15625 -2.90625 C 9.207031 -2.90625 10.023438 -3.25 10.609375 -3.9375 C 11.191406 -4.632812 11.484375 -5.71875 11.484375 -7.1875 L 11.484375 -15.078125 L 15.265625 -15.078125 L 15.265625 0 L 11.640625 0 L 11.640625 -2.21875 L 11.34375 -2.28125 C 10.863281 -1.414062 10.273438 -0.769531 9.578125 -0.34375 C 8.878906 0.0703125 7.988281 0.28125 6.90625 0.28125 Z M 6.90625 0.28125 "/></g></g></g><g fill="#ffde59" fill-opacity="1"><g transform="translate(788.810981, 571.936047)"><g><path d="M 2.171875 0 L 2.171875 -15.078125 L 5.859375 -15.078125 L 5.859375 -12.84375 L 6.140625 -12.78125 C 6.503906 -13.625 6.984375 -14.238281 7.578125 -14.625 C 8.171875 -15.019531 8.890625 -15.21875 9.734375 -15.21875 C 10.585938 -15.21875 11.238281 -15.070312 11.6875 -14.78125 L 11.046875 -11.515625 L 10.765625 -11.453125 C 10.515625 -11.554688 10.273438 -11.628906 10.046875 -11.671875 C 9.816406 -11.722656 9.539062 -11.75 9.21875 -11.75 C 8.15625 -11.75 7.347656 -11.375 6.796875 -10.625 C 6.242188 -9.882812 5.96875 -8.695312 5.96875 -7.0625 L 5.96875 0 Z M 2.171875 0 "/></g></g></g><g fill="#ffde59" fill-opacity="1"><g transform="translate(800.635519, 571.936047)"><g><path d="M 2.171875 0 L 2.171875 -15.078125 L 5.859375 -15.078125 L 5.859375 -12.84375 L 6.140625 -12.78125 C 6.503906 -13.625 6.984375 -14.238281 7.578125 -14.625 C 8.171875 -15.019531 8.890625 -15.21875 9.734375 -15.21875 C 10.585938 -15.21875 11.238281 -15.070312 11.6875 -14.78125 L 11.046875 -11.515625 L 10.765625 -11.453125 C 10.515625 -11.554688 10.273438 -11.628906 10.046875 -11.671875 C 9.816406 -11.722656 9.539062 -11.75 9.21875 -11.75 C 8.15625 -11.75 7.347656 -11.375 6.796875 -10.625 C 6.242188 -9.882812 5.96875 -8.695312 5.96875 -7.0625 L 5.96875 0 Z M 2.171875 0 "/></g></g></g><g fill="#ffde59" fill-opacity="1"><g transform="translate(812.063589, 571.936047)"><g><path d="M 14.90625 -6.6875 L 5.203125 -6.6875 C 5.316406 -5.375 5.691406 -4.414062 6.328125 -3.8125 C 6.960938 -3.21875 7.832031 -2.921875 8.9375 -2.921875 C 9.800781 -2.921875 10.503906 -3.082031 11.046875 -3.40625 C 11.585938 -3.726562 12.019531 -4.21875 12.34375 -4.875 L 12.640625 -4.875 L 15.15625 -3.265625 C 14.65625 -2.210938 13.910156 -1.359375 12.921875 -0.703125 C 11.929688 -0.046875 10.601562 0.28125 8.9375 0.28125 C 7.382812 0.28125 6.039062 -0.0078125 4.90625 -0.59375 C 3.769531 -1.1875 2.894531 -2.066406 2.28125 -3.234375 C 1.664062 -4.410156 1.359375 -5.84375 1.359375 -7.53125 C 1.359375 -9.25 1.679688 -10.691406 2.328125 -11.859375 C 2.972656 -13.035156 3.847656 -13.914062 4.953125 -14.5 C 6.054688 -15.082031 7.296875 -15.375 8.671875 -15.375 C 10.804688 -15.375 12.4375 -14.804688 13.5625 -13.671875 C 14.695312 -12.546875 15.265625 -10.890625 15.265625 -8.703125 C 15.265625 -7.898438 15.238281 -7.28125 15.1875 -6.84375 Z M 11.65625 -9.140625 C 11.613281 -10.285156 11.34375 -11.117188 10.84375 -11.640625 C 10.351562 -12.160156 9.628906 -12.421875 8.671875 -12.421875 C 6.753906 -12.421875 5.628906 -11.328125 5.296875 -9.140625 Z M 11.65625 -9.140625 "/></g></g></g><g fill="#ffde59" fill-opacity="1"><g transform="translate(828.453885, 571.936047)"><g><path d="M 2.171875 0 L 2.171875 -15.078125 L 5.8125 -15.078125 L 5.8125 -12.859375 L 6.09375 -12.796875 C 7.03125 -14.515625 8.554688 -15.375 10.671875 -15.375 C 12.410156 -15.375 13.6875 -14.898438 14.5 -13.953125 C 15.3125 -13.003906 15.71875 -11.617188 15.71875 -9.796875 L 15.71875 0 L 11.9375 0 L 11.9375 -9.34375 C 11.9375 -10.34375 11.734375 -11.0625 11.328125 -11.5 C 10.929688 -11.945312 10.289062 -12.171875 9.40625 -12.171875 C 8.320312 -12.171875 7.476562 -11.816406 6.875 -11.109375 C 6.269531 -10.410156 5.96875 -9.3125 5.96875 -7.8125 L 5.96875 0 Z M 2.171875 0 "/></g></g></g><g fill="#ffde59" fill-opacity="1"><g transform="translate(846.006122, 571.936047)"><g><path d="M 10.40625 -3.59375 L 11.390625 -0.796875 C 10.984375 -0.453125 10.46875 -0.1875 9.84375 0 C 9.226562 0.1875 8.523438 0.28125 7.734375 0.28125 C 6.109375 0.28125 4.867188 -0.160156 4.015625 -1.046875 C 3.171875 -1.929688 2.75 -3.222656 2.75 -4.921875 L 2.75 -12.09375 L 0.453125 -12.09375 L 0.453125 -15.09375 L 2.75 -15.09375 L 2.75 -18.03125 L 6.53125 -18.65625 L 6.53125 -15.09375 L 10.8125 -15.09375 L 10.8125 -12.09375 L 6.53125 -12.09375 L 6.53125 -5.203125 C 6.53125 -4.453125 6.6875 -3.90625 7 -3.5625 C 7.3125 -3.21875 7.765625 -3.046875 8.359375 -3.046875 C 9.023438 -3.046875 9.613281 -3.226562 10.125 -3.59375 Z M 10.40625 -3.59375 "/></g></g></g><g clip-path="url(#71ccbbf38c)"><path fill="#ffd400" d="M 725.136719 637.757812 L 739.367188 601.921875 L 743.097656 592.527344 L 736.976562 600.597656 L 698.199219 651.679688 L 696.523438 653.886719 L 699.3125 653.871094 L 716.195312 653.800781 L 701.390625 691.847656 L 697.476562 701.902344 L 703.808594 693.136719 L 742.210938 639.964844 L 743.773438 637.800781 L 741.085938 637.796875 L 725.136719 637.757812 " fill-opacity="1" fill-rule="nonzero"/></g></svg>