<svg xmlns="http://www.w3.org/2000/svg" xmlns:xlink="http://www.w3.org/1999/xlink" width="1920" zoomAndPan="magnify" viewBox="0 0 1440 809.999993" height="1080" preserveAspectRatio="xMidYMid meet" version="1.0"><defs><g/></defs><rect x="-144" width="1728" fill="#ffffff" y="-80.999999" height="971.999992" fill-opacity="1"/><rect x="-144" width="1728" fill="#1c2542" y="-80.999999" height="971.999992" fill-opacity="1"/><path stroke-linecap="butt" transform="matrix(0.75, 0, 0, 0.75, 183.503143, 119.42502)" fill="none" stroke-linejoin="miter" d="M 0.00101821 4.001016 L 401.15208 4.001016 " stroke="#5dbfbe" stroke-width="8" stroke-opacity="1" stroke-miterlimit="4"/><path stroke-linecap="butt" transform="matrix(0, -0.75, 0.75, 0, 182.000798, 633.622668)" fill="none" stroke-linejoin="miter" d="M 0.00209916 3.998936 L 685.601092 3.998936 " stroke="#5dbfbe" stroke-width="8" stroke-opacity="1" stroke-miterlimit="4"/><path stroke-linecap="butt" transform="matrix(0, -0.75, 0.75, 0, 481.365222, 633.622668)" fill="none" stroke-linejoin="miter" d="M 0.00209916 3.997413 L 685.601092 3.997413 " stroke="#5dbfbe" stroke-width="8" stroke-opacity="1" stroke-miterlimit="4"/><path stroke-linecap="butt" transform="matrix(0.75, 0, 0, 0.75, 484.367598, 629.124948)" fill="none" stroke-linejoin="miter" d="M -0.000547139 4.000069 L 399.150515 4.000069 " stroke="#5dbfbe" stroke-width="8" stroke-opacity="1" stroke-miterlimit="4"/><path stroke-linecap="butt" transform="matrix(0.75, 0, 0, 0.75, -114.361298, 629.124948)" fill="none" stroke-linejoin="miter" d="M 0.00256457 4.000069 L 399.153626 4.000069 " stroke="#5dbfbe" stroke-width="8" stroke-opacity="1" stroke-miterlimit="4"/><path stroke-linecap="butt" transform="matrix(-0.000167439, -0.75, 0.75, -0.000167439, 779.229759, 632.123316)" fill="none" stroke-linejoin="miter" d="M 0.00207005 4.000947 L 683.601062 4.00252 " stroke="#5dbfbe" stroke-width="8" stroke-opacity="1" stroke-miterlimit="4"/><path stroke-linecap="butt" transform="matrix(0.75, 0, 0, 0.75, 779.359839, 117.92502)" fill="none" stroke-linejoin="miter" d="M -0.000618685 4.001016 L 402.827527 4.001016 " stroke="#5dbfbe" stroke-width="8" stroke-opacity="1" stroke-miterlimit="4"/><path stroke-linecap="butt" transform="matrix(0.00219426, -0.749997, 0.749997, 0.00219426, 1076.978616, 632.112756)" fill="none" stroke-linejoin="miter" d="M 0.000593243 4.002486 L 683.602517 4.002489 " stroke="#5dbfbe" stroke-width="8" stroke-opacity="1" stroke-miterlimit="4"/><path stroke-linecap="butt" transform="matrix(0.75, 0, 0, 0.75, 1081.482024, 627.624948)" fill="none" stroke-linejoin="miter" d="M -0.00207342 4.000069 L 399.154197 4.000069 " stroke="#5dbfbe" stroke-width="8" stroke-opacity="1" stroke-miterlimit="4"/><path stroke-linecap="butt" transform="matrix(0, -0.75, 0.75, 0, 1374.729657, 630.622668)" fill="none" stroke-linejoin="miter" d="M 0.00209937 4.001082 L 681.601092 4.001082 " stroke="#5dbfbe" stroke-width="8" stroke-opacity="1" stroke-miterlimit="4"/><path stroke-linecap="butt" transform="matrix(0.75, 0, 0, 0.75, 1377.732009, 117.92502)" fill="none" stroke-linejoin="miter" d="M -0.00205355 4.001016 L 399.154217 4.001016 " stroke="#5dbfbe" stroke-width="8" stroke-opacity="1" stroke-miterlimit="4"/><path stroke-linecap="butt" transform="matrix(0.75, 0.000000000000000215, -0.000000000000000215, 0.75, 186.503142, 96.925021)" fill="none" stroke-linejoin="miter" d="M 3.001019 3.001014 L 394.15208 3.001014 " stroke="#5dbfbe" stroke-width="6" stroke-opacity="1" stroke-miterlimit="4"/><path stroke-linecap="round" transform="matrix(0.75, 0.000000000000000215, -0.000000000000000215, 0.75, 186.503142, 96.925021)" fill="none" stroke-linejoin="round" d="M 15.001019 -5.998986 L 3.001019 3.001014 L 15.001019 12.001015 " stroke="#5dbfbe" stroke-width="6" stroke-opacity="1" stroke-miterlimit="4"/><path stroke-linecap="round" transform="matrix(0.75, 0.000000000000000215, -0.000000000000000215, 0.75, 186.503142, 96.925021)" fill="none" stroke-linejoin="round" d="M 382.152079 -5.998986 L 394.15208 3.001014 L 382.152079 12.001015 " stroke="#5dbfbe" stroke-width="6" stroke-opacity="1" stroke-miterlimit="4"/><path stroke-linecap="butt" transform="matrix(0.75, 0.000000000000000215, -0.000000000000000215, 0.75, 484.253094, 651.624947)" fill="none" stroke-linejoin="miter" d="M 3.001083 3.000071 L 394.152145 3.000071 " stroke="#5dbfbe" stroke-width="6" stroke-opacity="1" stroke-miterlimit="4"/><path stroke-linecap="round" transform="matrix(0.75, 0.000000000000000215, -0.000000000000000215, 0.75, 484.253094, 651.624947)" fill="none" stroke-linejoin="round" d="M 15.001084 -5.99993 L 3.001083 3.000071 L 15.001084 12.000071 " stroke="#5dbfbe" stroke-width="6" stroke-opacity="1" stroke-miterlimit="4"/><path stroke-linecap="round" transform="matrix(0.75, 0.000000000000000215, -0.000000000000000215, 0.75, 484.253094, 651.624947)" fill="none" stroke-linejoin="round" d="M 382.152144 -5.99993 L 394.152145 3.000071 L 382.152144 12.000071 " stroke="#5dbfbe" stroke-width="6" stroke-opacity="1" stroke-miterlimit="4"/><path stroke-linecap="butt" transform="matrix(0.75, 0.000000000000000215, -0.000000000000000215, 0.75, 779.359839, 93.925014)" fill="none" stroke-linejoin="miter" d="M 2.999381 3.001024 L 394.150443 3.001024 " stroke="#5dbfbe" stroke-width="6" stroke-opacity="1" stroke-miterlimit="4"/><path stroke-linecap="round" transform="matrix(0.75, 0.000000000000000215, -0.000000000000000215, 0.75, 779.359839, 93.925014)" fill="none" stroke-linejoin="round" d="M 14.999382 -5.998977 L 2.999381 3.001024 L 14.999382 12.001024 " stroke="#5dbfbe" stroke-width="6" stroke-opacity="1" stroke-miterlimit="4"/><path stroke-linecap="round" transform="matrix(0.75, 0.000000000000000215, -0.000000000000000215, 0.75, 779.359839, 93.925014)" fill="none" stroke-linejoin="round" d="M 382.150442 -5.998977 L 394.150443 3.001024 L 382.150442 12.001024 " stroke="#5dbfbe" stroke-width="6" stroke-opacity="1" stroke-miterlimit="4"/><path stroke-linecap="butt" transform="matrix(0.75, 0.000000000000000215, -0.000000000000000215, 0.75, 1081.596408, 650.124947)" fill="none" stroke-linejoin="miter" d="M 3.001665 3.00007 L 394.152726 3.00007 " stroke="#5dbfbe" stroke-width="6" stroke-opacity="1" stroke-miterlimit="4"/><path stroke-linecap="round" transform="matrix(0.75, 0.000000000000000215, -0.000000000000000215, 0.75, 1081.596408, 650.124947)" fill="none" stroke-linejoin="round" d="M 15.001665 -5.99993 L 3.001665 3.00007 L 15.001665 12.000071 " stroke="#5dbfbe" stroke-width="6" stroke-opacity="1" stroke-miterlimit="4"/><path stroke-linecap="round" transform="matrix(0.75, 0.000000000000000215, -0.000000000000000215, 0.75, 1081.596408, 650.124947)" fill="none" stroke-linejoin="round" d="M 382.152725 -5.99993 L 394.152726 3.00007 L 382.152725 12.000071 " stroke="#5dbfbe" stroke-width="6" stroke-opacity="1" stroke-miterlimit="4"/><path stroke-linecap="butt" transform="matrix(0.75, 0.000000000000000215, -0.000000000000000215, 0.75, -112.861298, 650.124947)" fill="none" stroke-linejoin="miter" d="M 3.002565 3.00007 L 394.153626 3.00007 " stroke="#5dbfbe" stroke-width="6" stroke-opacity="1" stroke-miterlimit="4"/><path stroke-linecap="round" transform="matrix(0.75, 0.000000000000000215, -0.000000000000000215, 0.75, -112.861298, 650.124947)" fill="none" stroke-linejoin="round" d="M 382.153626 -5.99993 L 394.153626 3.00007 L 382.153626 12.000071 " stroke="#5dbfbe" stroke-width="6" stroke-opacity="1" stroke-miterlimit="4"/><g fill="#5dbfbe" fill-opacity="1"><g transform="translate(268.17468, 74.075008)"><g/></g></g><g fill="#5dbfbe" fill-opacity="1"><g transform="translate(272.662961, 74.075008)"><g><path d="M 4.4375 -13.5625 L 4.4375 -2.25 L 10.546875 -2.25 L 10.546875 0 L 1.765625 0 L 1.765625 -13.5625 Z M 4.4375 -13.5625 "/></g></g></g><g fill="#5dbfbe" fill-opacity="1"><g transform="translate(283.645077, 74.075008)"><g><path d="M 5.953125 0.1875 C 4.941406 0.1875 4.054688 -0.015625 3.296875 -0.421875 C 2.546875 -0.835938 1.960938 -1.441406 1.546875 -2.234375 C 1.128906 -3.023438 0.921875 -3.984375 0.921875 -5.109375 C 0.921875 -6.234375 1.128906 -7.191406 1.546875 -7.984375 C 1.960938 -8.785156 2.546875 -9.390625 3.296875 -9.796875 C 4.054688 -10.210938 4.941406 -10.421875 5.953125 -10.421875 C 6.953125 -10.421875 7.828125 -10.210938 8.578125 -9.796875 C 9.335938 -9.390625 9.925781 -8.785156 10.34375 -7.984375 C 10.769531 -7.191406 10.984375 -6.234375 10.984375 -5.109375 C 10.984375 -3.984375 10.769531 -3.023438 10.34375 -2.234375 C 9.925781 -1.441406 9.335938 -0.835938 8.578125 -0.421875 C 7.828125 -0.015625 6.953125 0.1875 5.953125 0.1875 Z M 5.953125 -1.984375 C 7.535156 -1.984375 8.328125 -3.023438 8.328125 -5.109375 C 8.328125 -6.191406 8.125 -6.984375 7.71875 -7.484375 C 7.3125 -7.992188 6.722656 -8.25 5.953125 -8.25 C 4.359375 -8.25 3.5625 -7.203125 3.5625 -5.109375 C 3.5625 -3.023438 4.359375 -1.984375 5.953125 -1.984375 Z M 5.953125 -1.984375 "/></g></g></g><g fill="#5dbfbe" fill-opacity="1"><g transform="translate(295.461982, 74.075008)"><g><path d="M 5.3125 4.34375 C 3.625 4.34375 2.375 4.09375 1.5625 3.59375 C 0.757812 3.101562 0.359375 2.414062 0.359375 1.53125 C 0.359375 0.988281 0.53125 0.546875 0.875 0.203125 C 1.21875 -0.140625 1.710938 -0.367188 2.359375 -0.484375 L 2.359375 -0.671875 C 2.015625 -0.890625 1.765625 -1.125 1.609375 -1.375 C 1.453125 -1.632812 1.375 -1.929688 1.375 -2.265625 C 1.375 -3.085938 1.910156 -3.644531 2.984375 -3.9375 L 2.984375 -4.125 C 2.429688 -4.445312 2.015625 -4.835938 1.734375 -5.296875 C 1.460938 -5.765625 1.328125 -6.332031 1.328125 -7 C 1.328125 -7.675781 1.484375 -8.269531 1.796875 -8.78125 C 2.109375 -9.300781 2.566406 -9.703125 3.171875 -9.984375 C 3.773438 -10.273438 4.492188 -10.421875 5.328125 -10.421875 C 6.179688 -10.421875 6.863281 -10.273438 7.375 -9.984375 C 7.6875 -10.441406 7.867188 -10.96875 7.921875 -11.5625 L 8.125 -11.6875 L 9.96875 -11.234375 C 9.90625 -10.742188 9.757812 -10.332031 9.53125 -10 C 9.300781 -9.675781 8.945312 -9.382812 8.46875 -9.125 L 8.46875 -8.921875 C 9.039062 -8.410156 9.328125 -7.703125 9.328125 -6.796875 C 9.328125 -6.160156 9.171875 -5.59375 8.859375 -5.09375 C 8.546875 -4.59375 8.085938 -4.195312 7.484375 -3.90625 C 6.878906 -3.613281 6.160156 -3.46875 5.328125 -3.46875 L 4.9375 -3.484375 C 4.695312 -3.492188 4.523438 -3.5 4.421875 -3.5 C 4.191406 -3.5 4.007812 -3.4375 3.875 -3.3125 C 3.738281 -3.1875 3.671875 -3.023438 3.671875 -2.828125 C 3.671875 -2.609375 3.753906 -2.4375 3.921875 -2.3125 C 4.097656 -2.195312 4.351562 -2.128906 4.6875 -2.109375 L 6.984375 -2.03125 C 9.242188 -1.96875 10.375 -0.992188 10.375 0.890625 C 10.375 1.554688 10.207031 2.144531 9.875 2.65625 C 9.539062 3.175781 8.992188 3.585938 8.234375 3.890625 C 7.484375 4.191406 6.507812 4.34375 5.3125 4.34375 Z M 5.328125 -5.265625 C 5.828125 -5.265625 6.210938 -5.410156 6.484375 -5.703125 C 6.765625 -5.992188 6.90625 -6.410156 6.90625 -6.953125 C 6.90625 -7.484375 6.765625 -7.894531 6.484375 -8.1875 C 6.210938 -8.476562 5.828125 -8.625 5.328125 -8.625 C 4.828125 -8.625 4.441406 -8.476562 4.171875 -8.1875 C 3.898438 -7.894531 3.765625 -7.484375 3.765625 -6.953125 C 3.765625 -6.398438 3.898438 -5.976562 4.171875 -5.6875 C 4.441406 -5.40625 4.828125 -5.265625 5.328125 -5.265625 Z M 5.3125 2.484375 C 6.1875 2.484375 6.820312 2.359375 7.21875 2.109375 C 7.625 1.859375 7.828125 1.535156 7.828125 1.140625 C 7.828125 0.816406 7.722656 0.578125 7.515625 0.421875 C 7.304688 0.273438 6.984375 0.195312 6.546875 0.1875 L 4.515625 0.09375 C 4.453125 0.09375 4.390625 0.0859375 4.328125 0.078125 C 4.265625 0.078125 4.207031 0.078125 4.15625 0.078125 C 3.71875 0.078125 3.382812 0.164062 3.15625 0.34375 C 2.9375 0.53125 2.828125 0.789062 2.828125 1.125 C 2.828125 1.550781 3.035156 1.882812 3.453125 2.125 C 3.867188 2.363281 4.488281 2.484375 5.3125 2.484375 Z M 5.3125 2.484375 "/></g></g></g><g fill="#5dbfbe" fill-opacity="1"><g transform="translate(306.100913, 74.075008)"><g><path d="M 2.75 -11.453125 C 2.289062 -11.453125 1.914062 -11.59375 1.625 -11.875 C 1.332031 -12.15625 1.1875 -12.519531 1.1875 -12.96875 C 1.1875 -13.40625 1.332031 -13.765625 1.625 -14.046875 C 1.914062 -14.328125 2.289062 -14.46875 2.75 -14.46875 C 3.0625 -14.46875 3.335938 -14.398438 3.578125 -14.265625 C 3.816406 -14.140625 4.003906 -13.960938 4.140625 -13.734375 C 4.273438 -13.515625 4.34375 -13.257812 4.34375 -12.96875 C 4.34375 -12.675781 4.273438 -12.414062 4.140625 -12.1875 C 4.003906 -11.957031 3.816406 -11.773438 3.578125 -11.640625 C 3.335938 -11.515625 3.0625 -11.453125 2.75 -11.453125 Z M 1.46875 0 L 1.46875 -10.234375 L 4.046875 -10.234375 L 4.046875 0 Z M 1.46875 0 "/></g></g></g><g fill="#5dbfbe" fill-opacity="1"><g transform="translate(311.610522, 74.075008)"><g><path d="M 5.96875 0.1875 C 4.976562 0.1875 4.101562 -0.015625 3.34375 -0.421875 C 2.582031 -0.835938 1.988281 -1.441406 1.5625 -2.234375 C 1.132812 -3.035156 0.921875 -3.992188 0.921875 -5.109375 C 0.921875 -6.234375 1.132812 -7.191406 1.5625 -7.984375 C 1.988281 -8.785156 2.578125 -9.390625 3.328125 -9.796875 C 4.085938 -10.210938 4.953125 -10.421875 5.921875 -10.421875 C 8.078125 -10.421875 9.457031 -9.640625 10.0625 -8.078125 L 8.296875 -6.8125 L 8.109375 -6.8125 C 7.898438 -7.300781 7.625 -7.660156 7.28125 -7.890625 C 6.945312 -8.128906 6.492188 -8.25 5.921875 -8.25 C 5.179688 -8.25 4.601562 -7.988281 4.1875 -7.46875 C 3.769531 -6.957031 3.5625 -6.171875 3.5625 -5.109375 C 3.5625 -4.054688 3.769531 -3.269531 4.1875 -2.75 C 4.613281 -2.238281 5.207031 -1.984375 5.96875 -1.984375 C 6.519531 -1.984375 6.988281 -2.132812 7.375 -2.4375 C 7.757812 -2.738281 8.035156 -3.171875 8.203125 -3.734375 L 8.40625 -3.75 L 10.234375 -2.75 C 9.972656 -1.882812 9.488281 -1.175781 8.78125 -0.625 C 8.082031 -0.0820312 7.144531 0.1875 5.96875 0.1875 Z M 5.96875 0.1875 "/></g></g></g><g fill="#5dbfbe" fill-opacity="1"><g transform="translate(322.156699, 74.075008)"><g/></g></g><g fill="#5dbfbe" fill-opacity="1"><g transform="translate(326.63674, 74.075008)"><g><path d="M 0.71875 0 L 0.71875 -2.21875 L 3.984375 -2.21875 L 3.984375 -10.65625 L 3.78125 -10.71875 C 3.3125 -10.488281 2.851562 -10.304688 2.40625 -10.171875 C 1.957031 -10.046875 1.445312 -9.945312 0.875 -9.875 L 0.875 -12.171875 C 2.375 -12.484375 3.585938 -12.945312 4.515625 -13.5625 L 6.640625 -13.5625 L 6.640625 -2.21875 L 9.5625 -2.21875 L 9.5625 0 Z M 0.71875 0 "/></g></g></g><g fill="#5dbfbe" fill-opacity="1"><g transform="translate(336.644941, 74.075008)"><g/></g></g><g fill="#5dbfbe" fill-opacity="1"><g transform="translate(341.124982, 74.075008)"><g><path d="M 4.140625 1.9375 C 3.304688 0.894531 2.628906 -0.257812 2.109375 -1.53125 C 1.597656 -2.8125 1.34375 -4.367188 1.34375 -6.203125 C 1.34375 -8.023438 1.597656 -9.578125 2.109375 -10.859375 C 2.628906 -12.140625 3.304688 -13.300781 4.140625 -14.34375 L 6.125 -14.34375 L 6.15625 -14.140625 C 5.488281 -13.003906 4.972656 -11.816406 4.609375 -10.578125 C 4.242188 -9.347656 4.0625 -7.890625 4.0625 -6.203125 C 4.0625 -4.515625 4.242188 -3.050781 4.609375 -1.8125 C 4.972656 -0.582031 5.488281 0.601562 6.15625 1.75 L 6.125 1.9375 Z M 4.140625 1.9375 "/></g></g></g><g fill="#5dbfbe" fill-opacity="1"><g transform="translate(347.86823, 74.075008)"><g><path d="M 10.515625 -8.46875 L 10.515625 -13.5625 L 13.1875 -13.5625 L 13.1875 0 L 10.515625 0 L 10.515625 -6.171875 L 4.4375 -6.171875 L 4.4375 0 L 1.765625 0 L 1.765625 -13.5625 L 4.4375 -13.5625 L 4.4375 -8.46875 Z M 10.515625 -8.46875 "/></g></g></g><g fill="#5dbfbe" fill-opacity="1"><g transform="translate(362.829514, 74.075008)"><g><path d="M 2.75 -11.453125 C 2.289062 -11.453125 1.914062 -11.59375 1.625 -11.875 C 1.332031 -12.15625 1.1875 -12.519531 1.1875 -12.96875 C 1.1875 -13.40625 1.332031 -13.765625 1.625 -14.046875 C 1.914062 -14.328125 2.289062 -14.46875 2.75 -14.46875 C 3.0625 -14.46875 3.335938 -14.398438 3.578125 -14.265625 C 3.816406 -14.140625 4.003906 -13.960938 4.140625 -13.734375 C 4.273438 -13.515625 4.34375 -13.257812 4.34375 -12.96875 C 4.34375 -12.675781 4.273438 -12.414062 4.140625 -12.1875 C 4.003906 -11.957031 3.816406 -11.773438 3.578125 -11.640625 C 3.335938 -11.515625 3.0625 -11.453125 2.75 -11.453125 Z M 1.46875 0 L 1.46875 -10.234375 L 4.046875 -10.234375 L 4.046875 0 Z M 1.46875 0 "/></g></g></g><g fill="#5dbfbe" fill-opacity="1"><g transform="translate(368.339123, 74.075008)"><g><path d="M 5.3125 4.34375 C 3.625 4.34375 2.375 4.09375 1.5625 3.59375 C 0.757812 3.101562 0.359375 2.414062 0.359375 1.53125 C 0.359375 0.988281 0.53125 0.546875 0.875 0.203125 C 1.21875 -0.140625 1.710938 -0.367188 2.359375 -0.484375 L 2.359375 -0.671875 C 2.015625 -0.890625 1.765625 -1.125 1.609375 -1.375 C 1.453125 -1.632812 1.375 -1.929688 1.375 -2.265625 C 1.375 -3.085938 1.910156 -3.644531 2.984375 -3.9375 L 2.984375 -4.125 C 2.429688 -4.445312 2.015625 -4.835938 1.734375 -5.296875 C 1.460938 -5.765625 1.328125 -6.332031 1.328125 -7 C 1.328125 -7.675781 1.484375 -8.269531 1.796875 -8.78125 C 2.109375 -9.300781 2.566406 -9.703125 3.171875 -9.984375 C 3.773438 -10.273438 4.492188 -10.421875 5.328125 -10.421875 C 6.179688 -10.421875 6.863281 -10.273438 7.375 -9.984375 C 7.6875 -10.441406 7.867188 -10.96875 7.921875 -11.5625 L 8.125 -11.6875 L 9.96875 -11.234375 C 9.90625 -10.742188 9.757812 -10.332031 9.53125 -10 C 9.300781 -9.675781 8.945312 -9.382812 8.46875 -9.125 L 8.46875 -8.921875 C 9.039062 -8.410156 9.328125 -7.703125 9.328125 -6.796875 C 9.328125 -6.160156 9.171875 -5.59375 8.859375 -5.09375 C 8.546875 -4.59375 8.085938 -4.195312 7.484375 -3.90625 C 6.878906 -3.613281 6.160156 -3.46875 5.328125 -3.46875 L 4.9375 -3.484375 C 4.695312 -3.492188 4.523438 -3.5 4.421875 -3.5 C 4.191406 -3.5 4.007812 -3.4375 3.875 -3.3125 C 3.738281 -3.1875 3.671875 -3.023438 3.671875 -2.828125 C 3.671875 -2.609375 3.753906 -2.4375 3.921875 -2.3125 C 4.097656 -2.195312 4.351562 -2.128906 4.6875 -2.109375 L 6.984375 -2.03125 C 9.242188 -1.96875 10.375 -0.992188 10.375 0.890625 C 10.375 1.554688 10.207031 2.144531 9.875 2.65625 C 9.539062 3.175781 8.992188 3.585938 8.234375 3.890625 C 7.484375 4.191406 6.507812 4.34375 5.3125 4.34375 Z M 5.328125 -5.265625 C 5.828125 -5.265625 6.210938 -5.410156 6.484375 -5.703125 C 6.765625 -5.992188 6.90625 -6.410156 6.90625 -6.953125 C 6.90625 -7.484375 6.765625 -7.894531 6.484375 -8.1875 C 6.210938 -8.476562 5.828125 -8.625 5.328125 -8.625 C 4.828125 -8.625 4.441406 -8.476562 4.171875 -8.1875 C 3.898438 -7.894531 3.765625 -7.484375 3.765625 -6.953125 C 3.765625 -6.398438 3.898438 -5.976562 4.171875 -5.6875 C 4.441406 -5.40625 4.828125 -5.265625 5.328125 -5.265625 Z M 5.3125 2.484375 C 6.1875 2.484375 6.820312 2.359375 7.21875 2.109375 C 7.625 1.859375 7.828125 1.535156 7.828125 1.140625 C 7.828125 0.816406 7.722656 0.578125 7.515625 0.421875 C 7.304688 0.273438 6.984375 0.195312 6.546875 0.1875 L 4.515625 0.09375 C 4.453125 0.09375 4.390625 0.0859375 4.328125 0.078125 C 4.265625 0.078125 4.207031 0.078125 4.15625 0.078125 C 3.71875 0.078125 3.382812 0.164062 3.15625 0.34375 C 2.9375 0.53125 2.828125 0.789062 2.828125 1.125 C 2.828125 1.550781 3.035156 1.882812 3.453125 2.125 C 3.867188 2.363281 4.488281 2.484375 5.3125 2.484375 Z M 5.3125 2.484375 "/></g></g></g><g fill="#5dbfbe" fill-opacity="1"><g transform="translate(378.978054, 74.075008)"><g><path d="M 1.46875 0 L 1.46875 -14.34375 L 4.046875 -14.34375 L 4.046875 -8.890625 L 4.234375 -8.859375 C 4.578125 -9.359375 4.992188 -9.742188 5.484375 -10.015625 C 5.984375 -10.285156 6.582031 -10.421875 7.28125 -10.421875 C 9.539062 -10.421875 10.671875 -9.144531 10.671875 -6.59375 L 10.671875 0 L 8.09375 0 L 8.09375 -6.265625 C 8.09375 -6.960938 7.953125 -7.46875 7.671875 -7.78125 C 7.398438 -8.09375 6.972656 -8.25 6.390625 -8.25 C 5.671875 -8.25 5.097656 -8.007812 4.671875 -7.53125 C 4.253906 -7.050781 4.046875 -6.304688 4.046875 -5.296875 L 4.046875 0 Z M 1.46875 0 "/></g></g></g><g fill="#5dbfbe" fill-opacity="1"><g transform="translate(390.961917, 74.075008)"><g><path d="M 0.578125 1.75 C 1.003906 1 1.367188 0.253906 1.671875 -0.484375 C 1.984375 -1.234375 2.226562 -2.082031 2.40625 -3.03125 C 2.59375 -3.976562 2.6875 -5.035156 2.6875 -6.203125 C 2.6875 -7.359375 2.59375 -8.410156 2.40625 -9.359375 C 2.226562 -10.316406 1.988281 -11.164062 1.6875 -11.90625 C 1.382812 -12.65625 1.015625 -13.398438 0.578125 -14.140625 L 0.625 -14.34375 L 2.59375 -14.34375 C 3.125 -13.675781 3.59375 -12.972656 4 -12.234375 C 4.40625 -11.503906 4.738281 -10.628906 5 -9.609375 C 5.269531 -8.597656 5.40625 -7.460938 5.40625 -6.203125 C 5.40625 -4.367188 5.144531 -2.8125 4.625 -1.53125 C 4.101562 -0.257812 3.425781 0.894531 2.59375 1.9375 L 0.625 1.9375 Z M 0.578125 1.75 "/></g></g></g><g fill="#5dbfbe" fill-opacity="1"><g transform="translate(564.768674, 687.224985)"><g><path d="M 4.4375 -13.5625 L 4.4375 -2.25 L 10.546875 -2.25 L 10.546875 0 L 1.765625 0 L 1.765625 -13.5625 Z M 4.4375 -13.5625 "/></g></g></g><g fill="#5dbfbe" fill-opacity="1"><g transform="translate(575.75079, 687.224985)"><g><path d="M 5.953125 0.1875 C 4.941406 0.1875 4.054688 -0.015625 3.296875 -0.421875 C 2.546875 -0.835938 1.960938 -1.441406 1.546875 -2.234375 C 1.128906 -3.023438 0.921875 -3.984375 0.921875 -5.109375 C 0.921875 -6.234375 1.128906 -7.191406 1.546875 -7.984375 C 1.960938 -8.785156 2.546875 -9.390625 3.296875 -9.796875 C 4.054688 -10.210938 4.941406 -10.421875 5.953125 -10.421875 C 6.953125 -10.421875 7.828125 -10.210938 8.578125 -9.796875 C 9.335938 -9.390625 9.925781 -8.785156 10.34375 -7.984375 C 10.769531 -7.191406 10.984375 -6.234375 10.984375 -5.109375 C 10.984375 -3.984375 10.769531 -3.023438 10.34375 -2.234375 C 9.925781 -1.441406 9.335938 -0.835938 8.578125 -0.421875 C 7.828125 -0.015625 6.953125 0.1875 5.953125 0.1875 Z M 5.953125 -1.984375 C 7.535156 -1.984375 8.328125 -3.023438 8.328125 -5.109375 C 8.328125 -6.191406 8.125 -6.984375 7.71875 -7.484375 C 7.3125 -7.992188 6.722656 -8.25 5.953125 -8.25 C 4.359375 -8.25 3.5625 -7.203125 3.5625 -5.109375 C 3.5625 -3.023438 4.359375 -1.984375 5.953125 -1.984375 Z M 5.953125 -1.984375 "/></g></g></g><g fill="#5dbfbe" fill-opacity="1"><g transform="translate(587.567695, 687.224985)"><g><path d="M 5.3125 4.34375 C 3.625 4.34375 2.375 4.09375 1.5625 3.59375 C 0.757812 3.101562 0.359375 2.414062 0.359375 1.53125 C 0.359375 0.988281 0.53125 0.546875 0.875 0.203125 C 1.21875 -0.140625 1.710938 -0.367188 2.359375 -0.484375 L 2.359375 -0.671875 C 2.015625 -0.890625 1.765625 -1.125 1.609375 -1.375 C 1.453125 -1.632812 1.375 -1.929688 1.375 -2.265625 C 1.375 -3.085938 1.910156 -3.644531 2.984375 -3.9375 L 2.984375 -4.125 C 2.429688 -4.445312 2.015625 -4.835938 1.734375 -5.296875 C 1.460938 -5.765625 1.328125 -6.332031 1.328125 -7 C 1.328125 -7.675781 1.484375 -8.269531 1.796875 -8.78125 C 2.109375 -9.300781 2.566406 -9.703125 3.171875 -9.984375 C 3.773438 -10.273438 4.492188 -10.421875 5.328125 -10.421875 C 6.179688 -10.421875 6.863281 -10.273438 7.375 -9.984375 C 7.6875 -10.441406 7.867188 -10.96875 7.921875 -11.5625 L 8.125 -11.6875 L 9.96875 -11.234375 C 9.90625 -10.742188 9.757812 -10.332031 9.53125 -10 C 9.300781 -9.675781 8.945312 -9.382812 8.46875 -9.125 L 8.46875 -8.921875 C 9.039062 -8.410156 9.328125 -7.703125 9.328125 -6.796875 C 9.328125 -6.160156 9.171875 -5.59375 8.859375 -5.09375 C 8.546875 -4.59375 8.085938 -4.195312 7.484375 -3.90625 C 6.878906 -3.613281 6.160156 -3.46875 5.328125 -3.46875 L 4.9375 -3.484375 C 4.695312 -3.492188 4.523438 -3.5 4.421875 -3.5 C 4.191406 -3.5 4.007812 -3.4375 3.875 -3.3125 C 3.738281 -3.1875 3.671875 -3.023438 3.671875 -2.828125 C 3.671875 -2.609375 3.753906 -2.4375 3.921875 -2.3125 C 4.097656 -2.195312 4.351562 -2.128906 4.6875 -2.109375 L 6.984375 -2.03125 C 9.242188 -1.96875 10.375 -0.992188 10.375 0.890625 C 10.375 1.554688 10.207031 2.144531 9.875 2.65625 C 9.539062 3.175781 8.992188 3.585938 8.234375 3.890625 C 7.484375 4.191406 6.507812 4.34375 5.3125 4.34375 Z M 5.328125 -5.265625 C 5.828125 -5.265625 6.210938 -5.410156 6.484375 -5.703125 C 6.765625 -5.992188 6.90625 -6.410156 6.90625 -6.953125 C 6.90625 -7.484375 6.765625 -7.894531 6.484375 -8.1875 C 6.210938 -8.476562 5.828125 -8.625 5.328125 -8.625 C 4.828125 -8.625 4.441406 -8.476562 4.171875 -8.1875 C 3.898438 -7.894531 3.765625 -7.484375 3.765625 -6.953125 C 3.765625 -6.398438 3.898438 -5.976562 4.171875 -5.6875 C 4.441406 -5.40625 4.828125 -5.265625 5.328125 -5.265625 Z M 5.3125 2.484375 C 6.1875 2.484375 6.820312 2.359375 7.21875 2.109375 C 7.625 1.859375 7.828125 1.535156 7.828125 1.140625 C 7.828125 0.816406 7.722656 0.578125 7.515625 0.421875 C 7.304688 0.273438 6.984375 0.195312 6.546875 0.1875 L 4.515625 0.09375 C 4.453125 0.09375 4.390625 0.0859375 4.328125 0.078125 C 4.265625 0.078125 4.207031 0.078125 4.15625 0.078125 C 3.71875 0.078125 3.382812 0.164062 3.15625 0.34375 C 2.9375 0.53125 2.828125 0.789062 2.828125 1.125 C 2.828125 1.550781 3.035156 1.882812 3.453125 2.125 C 3.867188 2.363281 4.488281 2.484375 5.3125 2.484375 Z M 5.3125 2.484375 "/></g></g></g><g fill="#5dbfbe" fill-opacity="1"><g transform="translate(598.206626, 687.224985)"><g><path d="M 2.75 -11.453125 C 2.289062 -11.453125 1.914062 -11.59375 1.625 -11.875 C 1.332031 -12.15625 1.1875 -12.519531 1.1875 -12.96875 C 1.1875 -13.40625 1.332031 -13.765625 1.625 -14.046875 C 1.914062 -14.328125 2.289062 -14.46875 2.75 -14.46875 C 3.0625 -14.46875 3.335938 -14.398438 3.578125 -14.265625 C 3.816406 -14.140625 4.003906 -13.960938 4.140625 -13.734375 C 4.273438 -13.515625 4.34375 -13.257812 4.34375 -12.96875 C 4.34375 -12.675781 4.273438 -12.414062 4.140625 -12.1875 C 4.003906 -11.957031 3.816406 -11.773438 3.578125 -11.640625 C 3.335938 -11.515625 3.0625 -11.453125 2.75 -11.453125 Z M 1.46875 0 L 1.46875 -10.234375 L 4.046875 -10.234375 L 4.046875 0 Z M 1.46875 0 "/></g></g></g><g fill="#5dbfbe" fill-opacity="1"><g transform="translate(603.716235, 687.224985)"><g><path d="M 5.96875 0.1875 C 4.976562 0.1875 4.101562 -0.015625 3.34375 -0.421875 C 2.582031 -0.835938 1.988281 -1.441406 1.5625 -2.234375 C 1.132812 -3.035156 0.921875 -3.992188 0.921875 -5.109375 C 0.921875 -6.234375 1.132812 -7.191406 1.5625 -7.984375 C 1.988281 -8.785156 2.578125 -9.390625 3.328125 -9.796875 C 4.085938 -10.210938 4.953125 -10.421875 5.921875 -10.421875 C 8.078125 -10.421875 9.457031 -9.640625 10.0625 -8.078125 L 8.296875 -6.8125 L 8.109375 -6.8125 C 7.898438 -7.300781 7.625 -7.660156 7.28125 -7.890625 C 6.945312 -8.128906 6.492188 -8.25 5.921875 -8.25 C 5.179688 -8.25 4.601562 -7.988281 4.1875 -7.46875 C 3.769531 -6.957031 3.5625 -6.171875 3.5625 -5.109375 C 3.5625 -4.054688 3.769531 -3.269531 4.1875 -2.75 C 4.613281 -2.238281 5.207031 -1.984375 5.96875 -1.984375 C 6.519531 -1.984375 6.988281 -2.132812 7.375 -2.4375 C 7.757812 -2.738281 8.035156 -3.171875 8.203125 -3.734375 L 8.40625 -3.75 L 10.234375 -2.75 C 9.972656 -1.882812 9.488281 -1.175781 8.78125 -0.625 C 8.082031 -0.0820312 7.144531 0.1875 5.96875 0.1875 Z M 5.96875 0.1875 "/></g></g></g><g fill="#5dbfbe" fill-opacity="1"><g transform="translate(614.262411, 687.224985)"><g/></g></g><g fill="#5dbfbe" fill-opacity="1"><g transform="translate(618.742453, 687.224985)"><g><path d="M 6.625 0.1875 C 5.519531 0.1875 4.554688 -0.0546875 3.734375 -0.546875 C 2.910156 -1.035156 2.269531 -1.796875 1.8125 -2.828125 C 1.363281 -3.867188 1.140625 -5.1875 1.140625 -6.78125 C 1.140625 -8.375 1.363281 -9.6875 1.8125 -10.71875 C 2.269531 -11.757812 2.910156 -12.523438 3.734375 -13.015625 C 4.554688 -13.515625 5.519531 -13.765625 6.625 -13.765625 C 7.738281 -13.765625 8.703125 -13.515625 9.515625 -13.015625 C 10.335938 -12.523438 10.972656 -11.757812 11.421875 -10.71875 C 11.878906 -9.6875 12.109375 -8.375 12.109375 -6.78125 C 12.109375 -5.1875 11.878906 -3.867188 11.421875 -2.828125 C 10.972656 -1.796875 10.335938 -1.035156 9.515625 -0.546875 C 8.703125 -0.0546875 7.738281 0.1875 6.625 0.1875 Z M 6.625 -2.078125 C 7.226562 -2.078125 7.734375 -2.222656 8.140625 -2.515625 C 8.554688 -2.804688 8.875 -3.296875 9.09375 -3.984375 C 9.3125 -4.679688 9.421875 -5.613281 9.421875 -6.78125 C 9.421875 -7.945312 9.3125 -8.875 9.09375 -9.5625 C 8.875 -10.257812 8.554688 -10.753906 8.140625 -11.046875 C 7.734375 -11.335938 7.226562 -11.484375 6.625 -11.484375 C 6.019531 -11.484375 5.507812 -11.335938 5.09375 -11.046875 C 4.6875 -10.753906 4.375 -10.257812 4.15625 -9.5625 C 3.9375 -8.875 3.828125 -7.945312 3.828125 -6.78125 C 3.828125 -5.613281 3.9375 -4.679688 4.15625 -3.984375 C 4.375 -3.296875 4.6875 -2.804688 5.09375 -2.515625 C 5.507812 -2.222656 6.019531 -2.078125 6.625 -2.078125 Z M 6.625 -2.078125 "/></g></g></g><g fill="#5dbfbe" fill-opacity="1"><g transform="translate(631.997057, 687.224985)"><g/></g></g><g fill="#5dbfbe" fill-opacity="1"><g transform="translate(636.477098, 687.224985)"><g><path d="M 4.140625 1.9375 C 3.304688 0.894531 2.628906 -0.257812 2.109375 -1.53125 C 1.597656 -2.8125 1.34375 -4.367188 1.34375 -6.203125 C 1.34375 -8.023438 1.597656 -9.578125 2.109375 -10.859375 C 2.628906 -12.140625 3.304688 -13.300781 4.140625 -14.34375 L 6.125 -14.34375 L 6.15625 -14.140625 C 5.488281 -13.003906 4.972656 -11.816406 4.609375 -10.578125 C 4.242188 -9.347656 4.0625 -7.890625 4.0625 -6.203125 C 4.0625 -4.515625 4.242188 -3.050781 4.609375 -1.8125 C 4.972656 -0.582031 5.488281 0.601562 6.15625 1.75 L 6.125 1.9375 Z M 4.140625 1.9375 "/></g></g></g><g fill="#5dbfbe" fill-opacity="1"><g transform="translate(643.220345, 687.224985)"><g><path d="M 4.4375 -13.5625 L 4.4375 -2.25 L 10.546875 -2.25 L 10.546875 0 L 1.765625 0 L 1.765625 -13.5625 Z M 4.4375 -13.5625 "/></g></g></g><g fill="#5dbfbe" fill-opacity="1"><g transform="translate(654.202462, 687.224985)"><g><path d="M 5.953125 0.1875 C 4.941406 0.1875 4.054688 -0.015625 3.296875 -0.421875 C 2.546875 -0.835938 1.960938 -1.441406 1.546875 -2.234375 C 1.128906 -3.023438 0.921875 -3.984375 0.921875 -5.109375 C 0.921875 -6.234375 1.128906 -7.191406 1.546875 -7.984375 C 1.960938 -8.785156 2.546875 -9.390625 3.296875 -9.796875 C 4.054688 -10.210938 4.941406 -10.421875 5.953125 -10.421875 C 6.953125 -10.421875 7.828125 -10.210938 8.578125 -9.796875 C 9.335938 -9.390625 9.925781 -8.785156 10.34375 -7.984375 C 10.769531 -7.191406 10.984375 -6.234375 10.984375 -5.109375 C 10.984375 -3.984375 10.769531 -3.023438 10.34375 -2.234375 C 9.925781 -1.441406 9.335938 -0.835938 8.578125 -0.421875 C 7.828125 -0.015625 6.953125 0.1875 5.953125 0.1875 Z M 5.953125 -1.984375 C 7.535156 -1.984375 8.328125 -3.023438 8.328125 -5.109375 C 8.328125 -6.191406 8.125 -6.984375 7.71875 -7.484375 C 7.3125 -7.992188 6.722656 -8.25 5.953125 -8.25 C 4.359375 -8.25 3.5625 -7.203125 3.5625 -5.109375 C 3.5625 -3.023438 4.359375 -1.984375 5.953125 -1.984375 Z M 5.953125 -1.984375 "/></g></g></g><g fill="#5dbfbe" fill-opacity="1"><g transform="translate(666.019367, 687.224985)"><g><path d="M 5.5 0 L 2.796875 0 L 0.375 -10.234375 L 2.75 -10.234375 L 4.265625 -3.3125 L 4.453125 -3.3125 L 6.40625 -10.234375 L 8.625 -10.234375 L 10.640625 -3.3125 L 10.84375 -3.3125 L 12.28125 -10.234375 L 14.609375 -10.234375 L 12.203125 0 L 9.5 0 L 7.5625 -6.96875 L 7.359375 -6.96875 Z M 5.5 0 "/></g></g></g><g fill="#5dbfbe" fill-opacity="1"><g transform="translate(680.980651, 687.224985)"><g><path d="M 0.578125 1.75 C 1.003906 1 1.367188 0.253906 1.671875 -0.484375 C 1.984375 -1.234375 2.226562 -2.082031 2.40625 -3.03125 C 2.59375 -3.976562 2.6875 -5.035156 2.6875 -6.203125 C 2.6875 -7.359375 2.59375 -8.410156 2.40625 -9.359375 C 2.226562 -10.316406 1.988281 -11.164062 1.6875 -11.90625 C 1.382812 -12.65625 1.015625 -13.398438 0.578125 -14.140625 L 0.625 -14.34375 L 2.59375 -14.34375 C 3.125 -13.675781 3.59375 -12.972656 4 -12.234375 C 4.40625 -11.503906 4.738281 -10.628906 5 -9.609375 C 5.269531 -8.597656 5.40625 -7.460938 5.40625 -6.203125 C 5.40625 -4.367188 5.144531 -2.8125 4.625 -1.53125 C 4.101562 -0.257812 3.425781 0.894531 2.59375 1.9375 L 0.625 1.9375 Z M 0.578125 1.75 "/></g></g></g><g fill="#5dbfbe" fill-opacity="1"><g transform="translate(874.614346, 74.075008)"><g/></g></g><g fill="#5dbfbe" fill-opacity="1"><g transform="translate(879.102627, 74.075008)"><g><path d="M 4.4375 -13.5625 L 4.4375 -2.25 L 10.546875 -2.25 L 10.546875 0 L 1.765625 0 L 1.765625 -13.5625 Z M 4.4375 -13.5625 "/></g></g></g><g fill="#5dbfbe" fill-opacity="1"><g transform="translate(890.084743, 74.075008)"><g><path d="M 5.953125 0.1875 C 4.941406 0.1875 4.054688 -0.015625 3.296875 -0.421875 C 2.546875 -0.835938 1.960938 -1.441406 1.546875 -2.234375 C 1.128906 -3.023438 0.921875 -3.984375 0.921875 -5.109375 C 0.921875 -6.234375 1.128906 -7.191406 1.546875 -7.984375 C 1.960938 -8.785156 2.546875 -9.390625 3.296875 -9.796875 C 4.054688 -10.210938 4.941406 -10.421875 5.953125 -10.421875 C 6.953125 -10.421875 7.828125 -10.210938 8.578125 -9.796875 C 9.335938 -9.390625 9.925781 -8.785156 10.34375 -7.984375 C 10.769531 -7.191406 10.984375 -6.234375 10.984375 -5.109375 C 10.984375 -3.984375 10.769531 -3.023438 10.34375 -2.234375 C 9.925781 -1.441406 9.335938 -0.835938 8.578125 -0.421875 C 7.828125 -0.015625 6.953125 0.1875 5.953125 0.1875 Z M 5.953125 -1.984375 C 7.535156 -1.984375 8.328125 -3.023438 8.328125 -5.109375 C 8.328125 -6.191406 8.125 -6.984375 7.71875 -7.484375 C 7.3125 -7.992188 6.722656 -8.25 5.953125 -8.25 C 4.359375 -8.25 3.5625 -7.203125 3.5625 -5.109375 C 3.5625 -3.023438 4.359375 -1.984375 5.953125 -1.984375 Z M 5.953125 -1.984375 "/></g></g></g><g fill="#5dbfbe" fill-opacity="1"><g transform="translate(901.901649, 74.075008)"><g><path d="M 5.3125 4.34375 C 3.625 4.34375 2.375 4.09375 1.5625 3.59375 C 0.757812 3.101562 0.359375 2.414062 0.359375 1.53125 C 0.359375 0.988281 0.53125 0.546875 0.875 0.203125 C 1.21875 -0.140625 1.710938 -0.367188 2.359375 -0.484375 L 2.359375 -0.671875 C 2.015625 -0.890625 1.765625 -1.125 1.609375 -1.375 C 1.453125 -1.632812 1.375 -1.929688 1.375 -2.265625 C 1.375 -3.085938 1.910156 -3.644531 2.984375 -3.9375 L 2.984375 -4.125 C 2.429688 -4.445312 2.015625 -4.835938 1.734375 -5.296875 C 1.460938 -5.765625 1.328125 -6.332031 1.328125 -7 C 1.328125 -7.675781 1.484375 -8.269531 1.796875 -8.78125 C 2.109375 -9.300781 2.566406 -9.703125 3.171875 -9.984375 C 3.773438 -10.273438 4.492188 -10.421875 5.328125 -10.421875 C 6.179688 -10.421875 6.863281 -10.273438 7.375 -9.984375 C 7.6875 -10.441406 7.867188 -10.96875 7.921875 -11.5625 L 8.125 -11.6875 L 9.96875 -11.234375 C 9.90625 -10.742188 9.757812 -10.332031 9.53125 -10 C 9.300781 -9.675781 8.945312 -9.382812 8.46875 -9.125 L 8.46875 -8.921875 C 9.039062 -8.410156 9.328125 -7.703125 9.328125 -6.796875 C 9.328125 -6.160156 9.171875 -5.59375 8.859375 -5.09375 C 8.546875 -4.59375 8.085938 -4.195312 7.484375 -3.90625 C 6.878906 -3.613281 6.160156 -3.46875 5.328125 -3.46875 L 4.9375 -3.484375 C 4.695312 -3.492188 4.523438 -3.5 4.421875 -3.5 C 4.191406 -3.5 4.007812 -3.4375 3.875 -3.3125 C 3.738281 -3.1875 3.671875 -3.023438 3.671875 -2.828125 C 3.671875 -2.609375 3.753906 -2.4375 3.921875 -2.3125 C 4.097656 -2.195312 4.351562 -2.128906 4.6875 -2.109375 L 6.984375 -2.03125 C 9.242188 -1.96875 10.375 -0.992188 10.375 0.890625 C 10.375 1.554688 10.207031 2.144531 9.875 2.65625 C 9.539062 3.175781 8.992188 3.585938 8.234375 3.890625 C 7.484375 4.191406 6.507812 4.34375 5.3125 4.34375 Z M 5.328125 -5.265625 C 5.828125 -5.265625 6.210938 -5.410156 6.484375 -5.703125 C 6.765625 -5.992188 6.90625 -6.410156 6.90625 -6.953125 C 6.90625 -7.484375 6.765625 -7.894531 6.484375 -8.1875 C 6.210938 -8.476562 5.828125 -8.625 5.328125 -8.625 C 4.828125 -8.625 4.441406 -8.476562 4.171875 -8.1875 C 3.898438 -7.894531 3.765625 -7.484375 3.765625 -6.953125 C 3.765625 -6.398438 3.898438 -5.976562 4.171875 -5.6875 C 4.441406 -5.40625 4.828125 -5.265625 5.328125 -5.265625 Z M 5.3125 2.484375 C 6.1875 2.484375 6.820312 2.359375 7.21875 2.109375 C 7.625 1.859375 7.828125 1.535156 7.828125 1.140625 C 7.828125 0.816406 7.722656 0.578125 7.515625 0.421875 C 7.304688 0.273438 6.984375 0.195312 6.546875 0.1875 L 4.515625 0.09375 C 4.453125 0.09375 4.390625 0.0859375 4.328125 0.078125 C 4.265625 0.078125 4.207031 0.078125 4.15625 0.078125 C 3.71875 0.078125 3.382812 0.164062 3.15625 0.34375 C 2.9375 0.53125 2.828125 0.789062 2.828125 1.125 C 2.828125 1.550781 3.035156 1.882812 3.453125 2.125 C 3.867188 2.363281 4.488281 2.484375 5.3125 2.484375 Z M 5.3125 2.484375 "/></g></g></g><g fill="#5dbfbe" fill-opacity="1"><g transform="translate(912.54058, 74.075008)"><g><path d="M 2.75 -11.453125 C 2.289062 -11.453125 1.914062 -11.59375 1.625 -11.875 C 1.332031 -12.15625 1.1875 -12.519531 1.1875 -12.96875 C 1.1875 -13.40625 1.332031 -13.765625 1.625 -14.046875 C 1.914062 -14.328125 2.289062 -14.46875 2.75 -14.46875 C 3.0625 -14.46875 3.335938 -14.398438 3.578125 -14.265625 C 3.816406 -14.140625 4.003906 -13.960938 4.140625 -13.734375 C 4.273438 -13.515625 4.34375 -13.257812 4.34375 -12.96875 C 4.34375 -12.675781 4.273438 -12.414062 4.140625 -12.1875 C 4.003906 -11.957031 3.816406 -11.773438 3.578125 -11.640625 C 3.335938 -11.515625 3.0625 -11.453125 2.75 -11.453125 Z M 1.46875 0 L 1.46875 -10.234375 L 4.046875 -10.234375 L 4.046875 0 Z M 1.46875 0 "/></g></g></g><g fill="#5dbfbe" fill-opacity="1"><g transform="translate(918.050188, 74.075008)"><g><path d="M 5.96875 0.1875 C 4.976562 0.1875 4.101562 -0.015625 3.34375 -0.421875 C 2.582031 -0.835938 1.988281 -1.441406 1.5625 -2.234375 C 1.132812 -3.035156 0.921875 -3.992188 0.921875 -5.109375 C 0.921875 -6.234375 1.132812 -7.191406 1.5625 -7.984375 C 1.988281 -8.785156 2.578125 -9.390625 3.328125 -9.796875 C 4.085938 -10.210938 4.953125 -10.421875 5.921875 -10.421875 C 8.078125 -10.421875 9.457031 -9.640625 10.0625 -8.078125 L 8.296875 -6.8125 L 8.109375 -6.8125 C 7.898438 -7.300781 7.625 -7.660156 7.28125 -7.890625 C 6.945312 -8.128906 6.492188 -8.25 5.921875 -8.25 C 5.179688 -8.25 4.601562 -7.988281 4.1875 -7.46875 C 3.769531 -6.957031 3.5625 -6.171875 3.5625 -5.109375 C 3.5625 -4.054688 3.769531 -3.269531 4.1875 -2.75 C 4.613281 -2.238281 5.207031 -1.984375 5.96875 -1.984375 C 6.519531 -1.984375 6.988281 -2.132812 7.375 -2.4375 C 7.757812 -2.738281 8.035156 -3.171875 8.203125 -3.734375 L 8.40625 -3.75 L 10.234375 -2.75 C 9.972656 -1.882812 9.488281 -1.175781 8.78125 -0.625 C 8.082031 -0.0820312 7.144531 0.1875 5.96875 0.1875 Z M 5.96875 0.1875 "/></g></g></g><g fill="#5dbfbe" fill-opacity="1"><g transform="translate(928.596365, 74.075008)"><g/></g></g><g fill="#5dbfbe" fill-opacity="1"><g transform="translate(933.076406, 74.075008)"><g><path d="M 0.71875 0 L 0.71875 -2.21875 L 3.984375 -2.21875 L 3.984375 -10.65625 L 3.78125 -10.71875 C 3.3125 -10.488281 2.851562 -10.304688 2.40625 -10.171875 C 1.957031 -10.046875 1.445312 -9.945312 0.875 -9.875 L 0.875 -12.171875 C 2.375 -12.484375 3.585938 -12.945312 4.515625 -13.5625 L 6.640625 -13.5625 L 6.640625 -2.21875 L 9.5625 -2.21875 L 9.5625 0 Z M 0.71875 0 "/></g></g></g><g fill="#5dbfbe" fill-opacity="1"><g transform="translate(943.084607, 74.075008)"><g/></g></g><g fill="#5dbfbe" fill-opacity="1"><g transform="translate(947.564649, 74.075008)"><g><path d="M 4.140625 1.9375 C 3.304688 0.894531 2.628906 -0.257812 2.109375 -1.53125 C 1.597656 -2.8125 1.34375 -4.367188 1.34375 -6.203125 C 1.34375 -8.023438 1.597656 -9.578125 2.109375 -10.859375 C 2.628906 -12.140625 3.304688 -13.300781 4.140625 -14.34375 L 6.125 -14.34375 L 6.15625 -14.140625 C 5.488281 -13.003906 4.972656 -11.816406 4.609375 -10.578125 C 4.242188 -9.347656 4.0625 -7.890625 4.0625 -6.203125 C 4.0625 -4.515625 4.242188 -3.050781 4.609375 -1.8125 C 4.972656 -0.582031 5.488281 0.601562 6.15625 1.75 L 6.125 1.9375 Z M 4.140625 1.9375 "/></g></g></g><g fill="#5dbfbe" fill-opacity="1"><g transform="translate(954.307896, 74.075008)"><g><path d="M 10.515625 -8.46875 L 10.515625 -13.5625 L 13.1875 -13.5625 L 13.1875 0 L 10.515625 0 L 10.515625 -6.171875 L 4.4375 -6.171875 L 4.4375 0 L 1.765625 0 L 1.765625 -13.5625 L 4.4375 -13.5625 L 4.4375 -8.46875 Z M 10.515625 -8.46875 "/></g></g></g><g fill="#5dbfbe" fill-opacity="1"><g transform="translate(969.26918, 74.075008)"><g><path d="M 2.75 -11.453125 C 2.289062 -11.453125 1.914062 -11.59375 1.625 -11.875 C 1.332031 -12.15625 1.1875 -12.519531 1.1875 -12.96875 C 1.1875 -13.40625 1.332031 -13.765625 1.625 -14.046875 C 1.914062 -14.328125 2.289062 -14.46875 2.75 -14.46875 C 3.0625 -14.46875 3.335938 -14.398438 3.578125 -14.265625 C 3.816406 -14.140625 4.003906 -13.960938 4.140625 -13.734375 C 4.273438 -13.515625 4.34375 -13.257812 4.34375 -12.96875 C 4.34375 -12.675781 4.273438 -12.414062 4.140625 -12.1875 C 4.003906 -11.957031 3.816406 -11.773438 3.578125 -11.640625 C 3.335938 -11.515625 3.0625 -11.453125 2.75 -11.453125 Z M 1.46875 0 L 1.46875 -10.234375 L 4.046875 -10.234375 L 4.046875 0 Z M 1.46875 0 "/></g></g></g><g fill="#5dbfbe" fill-opacity="1"><g transform="translate(974.778789, 74.075008)"><g><path d="M 5.3125 4.34375 C 3.625 4.34375 2.375 4.09375 1.5625 3.59375 C 0.757812 3.101562 0.359375 2.414062 0.359375 1.53125 C 0.359375 0.988281 0.53125 0.546875 0.875 0.203125 C 1.21875 -0.140625 1.710938 -0.367188 2.359375 -0.484375 L 2.359375 -0.671875 C 2.015625 -0.890625 1.765625 -1.125 1.609375 -1.375 C 1.453125 -1.632812 1.375 -1.929688 1.375 -2.265625 C 1.375 -3.085938 1.910156 -3.644531 2.984375 -3.9375 L 2.984375 -4.125 C 2.429688 -4.445312 2.015625 -4.835938 1.734375 -5.296875 C 1.460938 -5.765625 1.328125 -6.332031 1.328125 -7 C 1.328125 -7.675781 1.484375 -8.269531 1.796875 -8.78125 C 2.109375 -9.300781 2.566406 -9.703125 3.171875 -9.984375 C 3.773438 -10.273438 4.492188 -10.421875 5.328125 -10.421875 C 6.179688 -10.421875 6.863281 -10.273438 7.375 -9.984375 C 7.6875 -10.441406 7.867188 -10.96875 7.921875 -11.5625 L 8.125 -11.6875 L 9.96875 -11.234375 C 9.90625 -10.742188 9.757812 -10.332031 9.53125 -10 C 9.300781 -9.675781 8.945312 -9.382812 8.46875 -9.125 L 8.46875 -8.921875 C 9.039062 -8.410156 9.328125 -7.703125 9.328125 -6.796875 C 9.328125 -6.160156 9.171875 -5.59375 8.859375 -5.09375 C 8.546875 -4.59375 8.085938 -4.195312 7.484375 -3.90625 C 6.878906 -3.613281 6.160156 -3.46875 5.328125 -3.46875 L 4.9375 -3.484375 C 4.695312 -3.492188 4.523438 -3.5 4.421875 -3.5 C 4.191406 -3.5 4.007812 -3.4375 3.875 -3.3125 C 3.738281 -3.1875 3.671875 -3.023438 3.671875 -2.828125 C 3.671875 -2.609375 3.753906 -2.4375 3.921875 -2.3125 C 4.097656 -2.195312 4.351562 -2.128906 4.6875 -2.109375 L 6.984375 -2.03125 C 9.242188 -1.96875 10.375 -0.992188 10.375 0.890625 C 10.375 1.554688 10.207031 2.144531 9.875 2.65625 C 9.539062 3.175781 8.992188 3.585938 8.234375 3.890625 C 7.484375 4.191406 6.507812 4.34375 5.3125 4.34375 Z M 5.328125 -5.265625 C 5.828125 -5.265625 6.210938 -5.410156 6.484375 -5.703125 C 6.765625 -5.992188 6.90625 -6.410156 6.90625 -6.953125 C 6.90625 -7.484375 6.765625 -7.894531 6.484375 -8.1875 C 6.210938 -8.476562 5.828125 -8.625 5.328125 -8.625 C 4.828125 -8.625 4.441406 -8.476562 4.171875 -8.1875 C 3.898438 -7.894531 3.765625 -7.484375 3.765625 -6.953125 C 3.765625 -6.398438 3.898438 -5.976562 4.171875 -5.6875 C 4.441406 -5.40625 4.828125 -5.265625 5.328125 -5.265625 Z M 5.3125 2.484375 C 6.1875 2.484375 6.820312 2.359375 7.21875 2.109375 C 7.625 1.859375 7.828125 1.535156 7.828125 1.140625 C 7.828125 0.816406 7.722656 0.578125 7.515625 0.421875 C 7.304688 0.273438 6.984375 0.195312 6.546875 0.1875 L 4.515625 0.09375 C 4.453125 0.09375 4.390625 0.0859375 4.328125 0.078125 C 4.265625 0.078125 4.207031 0.078125 4.15625 0.078125 C 3.71875 0.078125 3.382812 0.164062 3.15625 0.34375 C 2.9375 0.53125 2.828125 0.789062 2.828125 1.125 C 2.828125 1.550781 3.035156 1.882812 3.453125 2.125 C 3.867188 2.363281 4.488281 2.484375 5.3125 2.484375 Z M 5.3125 2.484375 "/></g></g></g><g fill="#5dbfbe" fill-opacity="1"><g transform="translate(985.41772, 74.075008)"><g><path d="M 1.46875 0 L 1.46875 -14.34375 L 4.046875 -14.34375 L 4.046875 -8.890625 L 4.234375 -8.859375 C 4.578125 -9.359375 4.992188 -9.742188 5.484375 -10.015625 C 5.984375 -10.285156 6.582031 -10.421875 7.28125 -10.421875 C 9.539062 -10.421875 10.671875 -9.144531 10.671875 -6.59375 L 10.671875 0 L 8.09375 0 L 8.09375 -6.265625 C 8.09375 -6.960938 7.953125 -7.46875 7.671875 -7.78125 C 7.398438 -8.09375 6.972656 -8.25 6.390625 -8.25 C 5.671875 -8.25 5.097656 -8.007812 4.671875 -7.53125 C 4.253906 -7.050781 4.046875 -6.304688 4.046875 -5.296875 L 4.046875 0 Z M 1.46875 0 "/></g></g></g><g fill="#5dbfbe" fill-opacity="1"><g transform="translate(997.401583, 74.075008)"><g><path d="M 0.578125 1.75 C 1.003906 1 1.367188 0.253906 1.671875 -0.484375 C 1.984375 -1.234375 2.226562 -2.082031 2.40625 -3.03125 C 2.59375 -3.976562 2.6875 -5.035156 2.6875 -6.203125 C 2.6875 -7.359375 2.59375 -8.410156 2.40625 -9.359375 C 2.226562 -10.316406 1.988281 -11.164062 1.6875 -11.90625 C 1.382812 -12.65625 1.015625 -13.398438 0.578125 -14.140625 L 0.625 -14.34375 L 2.59375 -14.34375 C 3.125 -13.675781 3.59375 -12.972656 4 -12.234375 C 4.40625 -11.503906 4.738281 -10.628906 5 -9.609375 C 5.269531 -8.597656 5.40625 -7.460938 5.40625 -6.203125 C 5.40625 -4.367188 5.144531 -2.8125 4.625 -1.53125 C 4.101562 -0.257812 3.425781 0.894531 2.59375 1.9375 L 0.625 1.9375 Z M 0.578125 1.75 "/></g></g></g><g fill="#5dbfbe" fill-opacity="1"><g transform="translate(1180.815427, 687.224985)"><g><path d="M 4.4375 -13.5625 L 4.4375 -2.25 L 10.546875 -2.25 L 10.546875 0 L 1.765625 0 L 1.765625 -13.5625 Z M 4.4375 -13.5625 "/></g></g></g><g fill="#5dbfbe" fill-opacity="1"><g transform="translate(1191.797543, 687.224985)"><g><path d="M 5.953125 0.1875 C 4.941406 0.1875 4.054688 -0.015625 3.296875 -0.421875 C 2.546875 -0.835938 1.960938 -1.441406 1.546875 -2.234375 C 1.128906 -3.023438 0.921875 -3.984375 0.921875 -5.109375 C 0.921875 -6.234375 1.128906 -7.191406 1.546875 -7.984375 C 1.960938 -8.785156 2.546875 -9.390625 3.296875 -9.796875 C 4.054688 -10.210938 4.941406 -10.421875 5.953125 -10.421875 C 6.953125 -10.421875 7.828125 -10.210938 8.578125 -9.796875 C 9.335938 -9.390625 9.925781 -8.785156 10.34375 -7.984375 C 10.769531 -7.191406 10.984375 -6.234375 10.984375 -5.109375 C 10.984375 -3.984375 10.769531 -3.023438 10.34375 -2.234375 C 9.925781 -1.441406 9.335938 -0.835938 8.578125 -0.421875 C 7.828125 -0.015625 6.953125 0.1875 5.953125 0.1875 Z M 5.953125 -1.984375 C 7.535156 -1.984375 8.328125 -3.023438 8.328125 -5.109375 C 8.328125 -6.191406 8.125 -6.984375 7.71875 -7.484375 C 7.3125 -7.992188 6.722656 -8.25 5.953125 -8.25 C 4.359375 -8.25 3.5625 -7.203125 3.5625 -5.109375 C 3.5625 -3.023438 4.359375 -1.984375 5.953125 -1.984375 Z M 5.953125 -1.984375 "/></g></g></g><g fill="#5dbfbe" fill-opacity="1"><g transform="translate(1203.614448, 687.224985)"><g><path d="M 5.3125 4.34375 C 3.625 4.34375 2.375 4.09375 1.5625 3.59375 C 0.757812 3.101562 0.359375 2.414062 0.359375 1.53125 C 0.359375 0.988281 0.53125 0.546875 0.875 0.203125 C 1.21875 -0.140625 1.710938 -0.367188 2.359375 -0.484375 L 2.359375 -0.671875 C 2.015625 -0.890625 1.765625 -1.125 1.609375 -1.375 C 1.453125 -1.632812 1.375 -1.929688 1.375 -2.265625 C 1.375 -3.085938 1.910156 -3.644531 2.984375 -3.9375 L 2.984375 -4.125 C 2.429688 -4.445312 2.015625 -4.835938 1.734375 -5.296875 C 1.460938 -5.765625 1.328125 -6.332031 1.328125 -7 C 1.328125 -7.675781 1.484375 -8.269531 1.796875 -8.78125 C 2.109375 -9.300781 2.566406 -9.703125 3.171875 -9.984375 C 3.773438 -10.273438 4.492188 -10.421875 5.328125 -10.421875 C 6.179688 -10.421875 6.863281 -10.273438 7.375 -9.984375 C 7.6875 -10.441406 7.867188 -10.96875 7.921875 -11.5625 L 8.125 -11.6875 L 9.96875 -11.234375 C 9.90625 -10.742188 9.757812 -10.332031 9.53125 -10 C 9.300781 -9.675781 8.945312 -9.382812 8.46875 -9.125 L 8.46875 -8.921875 C 9.039062 -8.410156 9.328125 -7.703125 9.328125 -6.796875 C 9.328125 -6.160156 9.171875 -5.59375 8.859375 -5.09375 C 8.546875 -4.59375 8.085938 -4.195312 7.484375 -3.90625 C 6.878906 -3.613281 6.160156 -3.46875 5.328125 -3.46875 L 4.9375 -3.484375 C 4.695312 -3.492188 4.523438 -3.5 4.421875 -3.5 C 4.191406 -3.5 4.007812 -3.4375 3.875 -3.3125 C 3.738281 -3.1875 3.671875 -3.023438 3.671875 -2.828125 C 3.671875 -2.609375 3.753906 -2.4375 3.921875 -2.3125 C 4.097656 -2.195312 4.351562 -2.128906 4.6875 -2.109375 L 6.984375 -2.03125 C 9.242188 -1.96875 10.375 -0.992188 10.375 0.890625 C 10.375 1.554688 10.207031 2.144531 9.875 2.65625 C 9.539062 3.175781 8.992188 3.585938 8.234375 3.890625 C 7.484375 4.191406 6.507812 4.34375 5.3125 4.34375 Z M 5.328125 -5.265625 C 5.828125 -5.265625 6.210938 -5.410156 6.484375 -5.703125 C 6.765625 -5.992188 6.90625 -6.410156 6.90625 -6.953125 C 6.90625 -7.484375 6.765625 -7.894531 6.484375 -8.1875 C 6.210938 -8.476562 5.828125 -8.625 5.328125 -8.625 C 4.828125 -8.625 4.441406 -8.476562 4.171875 -8.1875 C 3.898438 -7.894531 3.765625 -7.484375 3.765625 -6.953125 C 3.765625 -6.398438 3.898438 -5.976562 4.171875 -5.6875 C 4.441406 -5.40625 4.828125 -5.265625 5.328125 -5.265625 Z M 5.3125 2.484375 C 6.1875 2.484375 6.820312 2.359375 7.21875 2.109375 C 7.625 1.859375 7.828125 1.535156 7.828125 1.140625 C 7.828125 0.816406 7.722656 0.578125 7.515625 0.421875 C 7.304688 0.273438 6.984375 0.195312 6.546875 0.1875 L 4.515625 0.09375 C 4.453125 0.09375 4.390625 0.0859375 4.328125 0.078125 C 4.265625 0.078125 4.207031 0.078125 4.15625 0.078125 C 3.71875 0.078125 3.382812 0.164062 3.15625 0.34375 C 2.9375 0.53125 2.828125 0.789062 2.828125 1.125 C 2.828125 1.550781 3.035156 1.882812 3.453125 2.125 C 3.867188 2.363281 4.488281 2.484375 5.3125 2.484375 Z M 5.3125 2.484375 "/></g></g></g><g fill="#5dbfbe" fill-opacity="1"><g transform="translate(1214.253379, 687.224985)"><g><path d="M 2.75 -11.453125 C 2.289062 -11.453125 1.914062 -11.59375 1.625 -11.875 C 1.332031 -12.15625 1.1875 -12.519531 1.1875 -12.96875 C 1.1875 -13.40625 1.332031 -13.765625 1.625 -14.046875 C 1.914062 -14.328125 2.289062 -14.46875 2.75 -14.46875 C 3.0625 -14.46875 3.335938 -14.398438 3.578125 -14.265625 C 3.816406 -14.140625 4.003906 -13.960938 4.140625 -13.734375 C 4.273438 -13.515625 4.34375 -13.257812 4.34375 -12.96875 C 4.34375 -12.675781 4.273438 -12.414062 4.140625 -12.1875 C 4.003906 -11.957031 3.816406 -11.773438 3.578125 -11.640625 C 3.335938 -11.515625 3.0625 -11.453125 2.75 -11.453125 Z M 1.46875 0 L 1.46875 -10.234375 L 4.046875 -10.234375 L 4.046875 0 Z M 1.46875 0 "/></g></g></g><g fill="#5dbfbe" fill-opacity="1"><g transform="translate(1219.762988, 687.224985)"><g><path d="M 5.96875 0.1875 C 4.976562 0.1875 4.101562 -0.015625 3.34375 -0.421875 C 2.582031 -0.835938 1.988281 -1.441406 1.5625 -2.234375 C 1.132812 -3.035156 0.921875 -3.992188 0.921875 -5.109375 C 0.921875 -6.234375 1.132812 -7.191406 1.5625 -7.984375 C 1.988281 -8.785156 2.578125 -9.390625 3.328125 -9.796875 C 4.085938 -10.210938 4.953125 -10.421875 5.921875 -10.421875 C 8.078125 -10.421875 9.457031 -9.640625 10.0625 -8.078125 L 8.296875 -6.8125 L 8.109375 -6.8125 C 7.898438 -7.300781 7.625 -7.660156 7.28125 -7.890625 C 6.945312 -8.128906 6.492188 -8.25 5.921875 -8.25 C 5.179688 -8.25 4.601562 -7.988281 4.1875 -7.46875 C 3.769531 -6.957031 3.5625 -6.171875 3.5625 -5.109375 C 3.5625 -4.054688 3.769531 -3.269531 4.1875 -2.75 C 4.613281 -2.238281 5.207031 -1.984375 5.96875 -1.984375 C 6.519531 -1.984375 6.988281 -2.132812 7.375 -2.4375 C 7.757812 -2.738281 8.035156 -3.171875 8.203125 -3.734375 L 8.40625 -3.75 L 10.234375 -2.75 C 9.972656 -1.882812 9.488281 -1.175781 8.78125 -0.625 C 8.082031 -0.0820312 7.144531 0.1875 5.96875 0.1875 Z M 5.96875 0.1875 "/></g></g></g><g fill="#5dbfbe" fill-opacity="1"><g transform="translate(1230.309164, 687.224985)"><g/></g></g><g fill="#5dbfbe" fill-opacity="1"><g transform="translate(1234.789206, 687.224985)"><g><path d="M 6.625 0.1875 C 5.519531 0.1875 4.554688 -0.0546875 3.734375 -0.546875 C 2.910156 -1.035156 2.269531 -1.796875 1.8125 -2.828125 C 1.363281 -3.867188 1.140625 -5.1875 1.140625 -6.78125 C 1.140625 -8.375 1.363281 -9.6875 1.8125 -10.71875 C 2.269531 -11.757812 2.910156 -12.523438 3.734375 -13.015625 C 4.554688 -13.515625 5.519531 -13.765625 6.625 -13.765625 C 7.738281 -13.765625 8.703125 -13.515625 9.515625 -13.015625 C 10.335938 -12.523438 10.972656 -11.757812 11.421875 -10.71875 C 11.878906 -9.6875 12.109375 -8.375 12.109375 -6.78125 C 12.109375 -5.1875 11.878906 -3.867188 11.421875 -2.828125 C 10.972656 -1.796875 10.335938 -1.035156 9.515625 -0.546875 C 8.703125 -0.0546875 7.738281 0.1875 6.625 0.1875 Z M 6.625 -2.078125 C 7.226562 -2.078125 7.734375 -2.222656 8.140625 -2.515625 C 8.554688 -2.804688 8.875 -3.296875 9.09375 -3.984375 C 9.3125 -4.679688 9.421875 -5.613281 9.421875 -6.78125 C 9.421875 -7.945312 9.3125 -8.875 9.09375 -9.5625 C 8.875 -10.257812 8.554688 -10.753906 8.140625 -11.046875 C 7.734375 -11.335938 7.226562 -11.484375 6.625 -11.484375 C 6.019531 -11.484375 5.507812 -11.335938 5.09375 -11.046875 C 4.6875 -10.753906 4.375 -10.257812 4.15625 -9.5625 C 3.9375 -8.875 3.828125 -7.945312 3.828125 -6.78125 C 3.828125 -5.613281 3.9375 -4.679688 4.15625 -3.984375 C 4.375 -3.296875 4.6875 -2.804688 5.09375 -2.515625 C 5.507812 -2.222656 6.019531 -2.078125 6.625 -2.078125 Z M 6.625 -2.078125 "/></g></g></g><g fill="#5dbfbe" fill-opacity="1"><g transform="translate(1248.04381, 687.224985)"><g/></g></g><g fill="#5dbfbe" fill-opacity="1"><g transform="translate(1252.523851, 687.224985)"><g><path d="M 4.140625 1.9375 C 3.304688 0.894531 2.628906 -0.257812 2.109375 -1.53125 C 1.597656 -2.8125 1.34375 -4.367188 1.34375 -6.203125 C 1.34375 -8.023438 1.597656 -9.578125 2.109375 -10.859375 C 2.628906 -12.140625 3.304688 -13.300781 4.140625 -14.34375 L 6.125 -14.34375 L 6.15625 -14.140625 C 5.488281 -13.003906 4.972656 -11.816406 4.609375 -10.578125 C 4.242188 -9.347656 4.0625 -7.890625 4.0625 -6.203125 C 4.0625 -4.515625 4.242188 -3.050781 4.609375 -1.8125 C 4.972656 -0.582031 5.488281 0.601562 6.15625 1.75 L 6.125 1.9375 Z M 4.140625 1.9375 "/></g></g></g><g fill="#5dbfbe" fill-opacity="1"><g transform="translate(1259.267098, 687.224985)"><g><path d="M 4.4375 -13.5625 L 4.4375 -2.25 L 10.546875 -2.25 L 10.546875 0 L 1.765625 0 L 1.765625 -13.5625 Z M 4.4375 -13.5625 "/></g></g></g><g fill="#5dbfbe" fill-opacity="1"><g transform="translate(1270.249215, 687.224985)"><g><path d="M 5.953125 0.1875 C 4.941406 0.1875 4.054688 -0.015625 3.296875 -0.421875 C 2.546875 -0.835938 1.960938 -1.441406 1.546875 -2.234375 C 1.128906 -3.023438 0.921875 -3.984375 0.921875 -5.109375 C 0.921875 -6.234375 1.128906 -7.191406 1.546875 -7.984375 C 1.960938 -8.785156 2.546875 -9.390625 3.296875 -9.796875 C 4.054688 -10.210938 4.941406 -10.421875 5.953125 -10.421875 C 6.953125 -10.421875 7.828125 -10.210938 8.578125 -9.796875 C 9.335938 -9.390625 9.925781 -8.785156 10.34375 -7.984375 C 10.769531 -7.191406 10.984375 -6.234375 10.984375 -5.109375 C 10.984375 -3.984375 10.769531 -3.023438 10.34375 -2.234375 C 9.925781 -1.441406 9.335938 -0.835938 8.578125 -0.421875 C 7.828125 -0.015625 6.953125 0.1875 5.953125 0.1875 Z M 5.953125 -1.984375 C 7.535156 -1.984375 8.328125 -3.023438 8.328125 -5.109375 C 8.328125 -6.191406 8.125 -6.984375 7.71875 -7.484375 C 7.3125 -7.992188 6.722656 -8.25 5.953125 -8.25 C 4.359375 -8.25 3.5625 -7.203125 3.5625 -5.109375 C 3.5625 -3.023438 4.359375 -1.984375 5.953125 -1.984375 Z M 5.953125 -1.984375 "/></g></g></g><g fill="#5dbfbe" fill-opacity="1"><g transform="translate(1282.06612, 687.224985)"><g><path d="M 5.5 0 L 2.796875 0 L 0.375 -10.234375 L 2.75 -10.234375 L 4.265625 -3.3125 L 4.453125 -3.3125 L 6.40625 -10.234375 L 8.625 -10.234375 L 10.640625 -3.3125 L 10.84375 -3.3125 L 12.28125 -10.234375 L 14.609375 -10.234375 L 12.203125 0 L 9.5 0 L 7.5625 -6.96875 L 7.359375 -6.96875 Z M 5.5 0 "/></g></g></g><g fill="#5dbfbe" fill-opacity="1"><g transform="translate(1297.027404, 687.224985)"><g><path d="M 0.578125 1.75 C 1.003906 1 1.367188 0.253906 1.671875 -0.484375 C 1.984375 -1.234375 2.226562 -2.082031 2.40625 -3.03125 C 2.59375 -3.976562 2.6875 -5.035156 2.6875 -6.203125 C 2.6875 -7.359375 2.59375 -8.410156 2.40625 -9.359375 C 2.226562 -10.316406 1.988281 -11.164062 1.6875 -11.90625 C 1.382812 -12.65625 1.015625 -13.398438 0.578125 -14.140625 L 0.625 -14.34375 L 2.59375 -14.34375 C 3.125 -13.675781 3.59375 -12.972656 4 -12.234375 C 4.40625 -11.503906 4.738281 -10.628906 5 -9.609375 C 5.269531 -8.597656 5.40625 -7.460938 5.40625 -6.203125 C 5.40625 -4.367188 5.144531 -2.8125 4.625 -1.53125 C 4.101562 -0.257812 3.425781 0.894531 2.59375 1.9375 L 0.625 1.9375 Z M 0.578125 1.75 "/></g></g></g><g fill="#5dbfbe" fill-opacity="1"><g transform="translate(7.721841, 687.224985)"><g><path d="M 4.4375 -13.5625 L 4.4375 -2.25 L 10.546875 -2.25 L 10.546875 0 L 1.765625 0 L 1.765625 -13.5625 Z M 4.4375 -13.5625 "/></g></g></g><g fill="#5dbfbe" fill-opacity="1"><g transform="translate(18.703957, 687.224985)"><g><path d="M 5.953125 0.1875 C 4.941406 0.1875 4.054688 -0.015625 3.296875 -0.421875 C 2.546875 -0.835938 1.960938 -1.441406 1.546875 -2.234375 C 1.128906 -3.023438 0.921875 -3.984375 0.921875 -5.109375 C 0.921875 -6.234375 1.128906 -7.191406 1.546875 -7.984375 C 1.960938 -8.785156 2.546875 -9.390625 3.296875 -9.796875 C 4.054688 -10.210938 4.941406 -10.421875 5.953125 -10.421875 C 6.953125 -10.421875 7.828125 -10.210938 8.578125 -9.796875 C 9.335938 -9.390625 9.925781 -8.785156 10.34375 -7.984375 C 10.769531 -7.191406 10.984375 -6.234375 10.984375 -5.109375 C 10.984375 -3.984375 10.769531 -3.023438 10.34375 -2.234375 C 9.925781 -1.441406 9.335938 -0.835938 8.578125 -0.421875 C 7.828125 -0.015625 6.953125 0.1875 5.953125 0.1875 Z M 5.953125 -1.984375 C 7.535156 -1.984375 8.328125 -3.023438 8.328125 -5.109375 C 8.328125 -6.191406 8.125 -6.984375 7.71875 -7.484375 C 7.3125 -7.992188 6.722656 -8.25 5.953125 -8.25 C 4.359375 -8.25 3.5625 -7.203125 3.5625 -5.109375 C 3.5625 -3.023438 4.359375 -1.984375 5.953125 -1.984375 Z M 5.953125 -1.984375 "/></g></g></g><g fill="#5dbfbe" fill-opacity="1"><g transform="translate(30.520862, 687.224985)"><g><path d="M 5.3125 4.34375 C 3.625 4.34375 2.375 4.09375 1.5625 3.59375 C 0.757812 3.101562 0.359375 2.414062 0.359375 1.53125 C 0.359375 0.988281 0.53125 0.546875 0.875 0.203125 C 1.21875 -0.140625 1.710938 -0.367188 2.359375 -0.484375 L 2.359375 -0.671875 C 2.015625 -0.890625 1.765625 -1.125 1.609375 -1.375 C 1.453125 -1.632812 1.375 -1.929688 1.375 -2.265625 C 1.375 -3.085938 1.910156 -3.644531 2.984375 -3.9375 L 2.984375 -4.125 C 2.429688 -4.445312 2.015625 -4.835938 1.734375 -5.296875 C 1.460938 -5.765625 1.328125 -6.332031 1.328125 -7 C 1.328125 -7.675781 1.484375 -8.269531 1.796875 -8.78125 C 2.109375 -9.300781 2.566406 -9.703125 3.171875 -9.984375 C 3.773438 -10.273438 4.492188 -10.421875 5.328125 -10.421875 C 6.179688 -10.421875 6.863281 -10.273438 7.375 -9.984375 C 7.6875 -10.441406 7.867188 -10.96875 7.921875 -11.5625 L 8.125 -11.6875 L 9.96875 -11.234375 C 9.90625 -10.742188 9.757812 -10.332031 9.53125 -10 C 9.300781 -9.675781 8.945312 -9.382812 8.46875 -9.125 L 8.46875 -8.921875 C 9.039062 -8.410156 9.328125 -7.703125 9.328125 -6.796875 C 9.328125 -6.160156 9.171875 -5.59375 8.859375 -5.09375 C 8.546875 -4.59375 8.085938 -4.195312 7.484375 -3.90625 C 6.878906 -3.613281 6.160156 -3.46875 5.328125 -3.46875 L 4.9375 -3.484375 C 4.695312 -3.492188 4.523438 -3.5 4.421875 -3.5 C 4.191406 -3.5 4.007812 -3.4375 3.875 -3.3125 C 3.738281 -3.1875 3.671875 -3.023438 3.671875 -2.828125 C 3.671875 -2.609375 3.753906 -2.4375 3.921875 -2.3125 C 4.097656 -2.195312 4.351562 -2.128906 4.6875 -2.109375 L 6.984375 -2.03125 C 9.242188 -1.96875 10.375 -0.992188 10.375 0.890625 C 10.375 1.554688 10.207031 2.144531 9.875 2.65625 C 9.539062 3.175781 8.992188 3.585938 8.234375 3.890625 C 7.484375 4.191406 6.507812 4.34375 5.3125 4.34375 Z M 5.328125 -5.265625 C 5.828125 -5.265625 6.210938 -5.410156 6.484375 -5.703125 C 6.765625 -5.992188 6.90625 -6.410156 6.90625 -6.953125 C 6.90625 -7.484375 6.765625 -7.894531 6.484375 -8.1875 C 6.210938 -8.476562 5.828125 -8.625 5.328125 -8.625 C 4.828125 -8.625 4.441406 -8.476562 4.171875 -8.1875 C 3.898438 -7.894531 3.765625 -7.484375 3.765625 -6.953125 C 3.765625 -6.398438 3.898438 -5.976562 4.171875 -5.6875 C 4.441406 -5.40625 4.828125 -5.265625 5.328125 -5.265625 Z M 5.3125 2.484375 C 6.1875 2.484375 6.820312 2.359375 7.21875 2.109375 C 7.625 1.859375 7.828125 1.535156 7.828125 1.140625 C 7.828125 0.816406 7.722656 0.578125 7.515625 0.421875 C 7.304688 0.273438 6.984375 0.195312 6.546875 0.1875 L 4.515625 0.09375 C 4.453125 0.09375 4.390625 0.0859375 4.328125 0.078125 C 4.265625 0.078125 4.207031 0.078125 4.15625 0.078125 C 3.71875 0.078125 3.382812 0.164062 3.15625 0.34375 C 2.9375 0.53125 2.828125 0.789062 2.828125 1.125 C 2.828125 1.550781 3.035156 1.882812 3.453125 2.125 C 3.867188 2.363281 4.488281 2.484375 5.3125 2.484375 Z M 5.3125 2.484375 "/></g></g></g><g fill="#5dbfbe" fill-opacity="1"><g transform="translate(41.159793, 687.224985)"><g><path d="M 2.75 -11.453125 C 2.289062 -11.453125 1.914062 -11.59375 1.625 -11.875 C 1.332031 -12.15625 1.1875 -12.519531 1.1875 -12.96875 C 1.1875 -13.40625 1.332031 -13.765625 1.625 -14.046875 C 1.914062 -14.328125 2.289062 -14.46875 2.75 -14.46875 C 3.0625 -14.46875 3.335938 -14.398438 3.578125 -14.265625 C 3.816406 -14.140625 4.003906 -13.960938 4.140625 -13.734375 C 4.273438 -13.515625 4.34375 -13.257812 4.34375 -12.96875 C 4.34375 -12.675781 4.273438 -12.414062 4.140625 -12.1875 C 4.003906 -11.957031 3.816406 -11.773438 3.578125 -11.640625 C 3.335938 -11.515625 3.0625 -11.453125 2.75 -11.453125 Z M 1.46875 0 L 1.46875 -10.234375 L 4.046875 -10.234375 L 4.046875 0 Z M 1.46875 0 "/></g></g></g><g fill="#5dbfbe" fill-opacity="1"><g transform="translate(46.669402, 687.224985)"><g><path d="M 5.96875 0.1875 C 4.976562 0.1875 4.101562 -0.015625 3.34375 -0.421875 C 2.582031 -0.835938 1.988281 -1.441406 1.5625 -2.234375 C 1.132812 -3.035156 0.921875 -3.992188 0.921875 -5.109375 C 0.921875 -6.234375 1.132812 -7.191406 1.5625 -7.984375 C 1.988281 -8.785156 2.578125 -9.390625 3.328125 -9.796875 C 4.085938 -10.210938 4.953125 -10.421875 5.921875 -10.421875 C 8.078125 -10.421875 9.457031 -9.640625 10.0625 -8.078125 L 8.296875 -6.8125 L 8.109375 -6.8125 C 7.898438 -7.300781 7.625 -7.660156 7.28125 -7.890625 C 6.945312 -8.128906 6.492188 -8.25 5.921875 -8.25 C 5.179688 -8.25 4.601562 -7.988281 4.1875 -7.46875 C 3.769531 -6.957031 3.5625 -6.171875 3.5625 -5.109375 C 3.5625 -4.054688 3.769531 -3.269531 4.1875 -2.75 C 4.613281 -2.238281 5.207031 -1.984375 5.96875 -1.984375 C 6.519531 -1.984375 6.988281 -2.132812 7.375 -2.4375 C 7.757812 -2.738281 8.035156 -3.171875 8.203125 -3.734375 L 8.40625 -3.75 L 10.234375 -2.75 C 9.972656 -1.882812 9.488281 -1.175781 8.78125 -0.625 C 8.082031 -0.0820312 7.144531 0.1875 5.96875 0.1875 Z M 5.96875 0.1875 "/></g></g></g><g fill="#5dbfbe" fill-opacity="1"><g transform="translate(57.215579, 687.224985)"><g/></g></g><g fill="#5dbfbe" fill-opacity="1"><g transform="translate(61.69562, 687.224985)"><g><path d="M 6.625 0.1875 C 5.519531 0.1875 4.554688 -0.0546875 3.734375 -0.546875 C 2.910156 -1.035156 2.269531 -1.796875 1.8125 -2.828125 C 1.363281 -3.867188 1.140625 -5.1875 1.140625 -6.78125 C 1.140625 -8.375 1.363281 -9.6875 1.8125 -10.71875 C 2.269531 -11.757812 2.910156 -12.523438 3.734375 -13.015625 C 4.554688 -13.515625 5.519531 -13.765625 6.625 -13.765625 C 7.738281 -13.765625 8.703125 -13.515625 9.515625 -13.015625 C 10.335938 -12.523438 10.972656 -11.757812 11.421875 -10.71875 C 11.878906 -9.6875 12.109375 -8.375 12.109375 -6.78125 C 12.109375 -5.1875 11.878906 -3.867188 11.421875 -2.828125 C 10.972656 -1.796875 10.335938 -1.035156 9.515625 -0.546875 C 8.703125 -0.0546875 7.738281 0.1875 6.625 0.1875 Z M 6.625 -2.078125 C 7.226562 -2.078125 7.734375 -2.222656 8.140625 -2.515625 C 8.554688 -2.804688 8.875 -3.296875 9.09375 -3.984375 C 9.3125 -4.679688 9.421875 -5.613281 9.421875 -6.78125 C 9.421875 -7.945312 9.3125 -8.875 9.09375 -9.5625 C 8.875 -10.257812 8.554688 -10.753906 8.140625 -11.046875 C 7.734375 -11.335938 7.226562 -11.484375 6.625 -11.484375 C 6.019531 -11.484375 5.507812 -11.335938 5.09375 -11.046875 C 4.6875 -10.753906 4.375 -10.257812 4.15625 -9.5625 C 3.9375 -8.875 3.828125 -7.945312 3.828125 -6.78125 C 3.828125 -5.613281 3.9375 -4.679688 4.15625 -3.984375 C 4.375 -3.296875 4.6875 -2.804688 5.09375 -2.515625 C 5.507812 -2.222656 6.019531 -2.078125 6.625 -2.078125 Z M 6.625 -2.078125 "/></g></g></g><g fill="#5dbfbe" fill-opacity="1"><g transform="translate(74.950224, 687.224985)"><g/></g></g><g fill="#5dbfbe" fill-opacity="1"><g transform="translate(79.430265, 687.224985)"><g><path d="M 4.140625 1.9375 C 3.304688 0.894531 2.628906 -0.257812 2.109375 -1.53125 C 1.597656 -2.8125 1.34375 -4.367188 1.34375 -6.203125 C 1.34375 -8.023438 1.597656 -9.578125 2.109375 -10.859375 C 2.628906 -12.140625 3.304688 -13.300781 4.140625 -14.34375 L 6.125 -14.34375 L 6.15625 -14.140625 C 5.488281 -13.003906 4.972656 -11.816406 4.609375 -10.578125 C 4.242188 -9.347656 4.0625 -7.890625 4.0625 -6.203125 C 4.0625 -4.515625 4.242188 -3.050781 4.609375 -1.8125 C 4.972656 -0.582031 5.488281 0.601562 6.15625 1.75 L 6.125 1.9375 Z M 4.140625 1.9375 "/></g></g></g><g fill="#5dbfbe" fill-opacity="1"><g transform="translate(86.173513, 687.224985)"><g><path d="M 4.4375 -13.5625 L 4.4375 -2.25 L 10.546875 -2.25 L 10.546875 0 L 1.765625 0 L 1.765625 -13.5625 Z M 4.4375 -13.5625 "/></g></g></g><g fill="#5dbfbe" fill-opacity="1"><g transform="translate(97.155629, 687.224985)"><g><path d="M 5.953125 0.1875 C 4.941406 0.1875 4.054688 -0.015625 3.296875 -0.421875 C 2.546875 -0.835938 1.960938 -1.441406 1.546875 -2.234375 C 1.128906 -3.023438 0.921875 -3.984375 0.921875 -5.109375 C 0.921875 -6.234375 1.128906 -7.191406 1.546875 -7.984375 C 1.960938 -8.785156 2.546875 -9.390625 3.296875 -9.796875 C 4.054688 -10.210938 4.941406 -10.421875 5.953125 -10.421875 C 6.953125 -10.421875 7.828125 -10.210938 8.578125 -9.796875 C 9.335938 -9.390625 9.925781 -8.785156 10.34375 -7.984375 C 10.769531 -7.191406 10.984375 -6.234375 10.984375 -5.109375 C 10.984375 -3.984375 10.769531 -3.023438 10.34375 -2.234375 C 9.925781 -1.441406 9.335938 -0.835938 8.578125 -0.421875 C 7.828125 -0.015625 6.953125 0.1875 5.953125 0.1875 Z M 5.953125 -1.984375 C 7.535156 -1.984375 8.328125 -3.023438 8.328125 -5.109375 C 8.328125 -6.191406 8.125 -6.984375 7.71875 -7.484375 C 7.3125 -7.992188 6.722656 -8.25 5.953125 -8.25 C 4.359375 -8.25 3.5625 -7.203125 3.5625 -5.109375 C 3.5625 -3.023438 4.359375 -1.984375 5.953125 -1.984375 Z M 5.953125 -1.984375 "/></g></g></g><g fill="#5dbfbe" fill-opacity="1"><g transform="translate(108.972534, 687.224985)"><g><path d="M 5.5 0 L 2.796875 0 L 0.375 -10.234375 L 2.75 -10.234375 L 4.265625 -3.3125 L 4.453125 -3.3125 L 6.40625 -10.234375 L 8.625 -10.234375 L 10.640625 -3.3125 L 10.84375 -3.3125 L 12.28125 -10.234375 L 14.609375 -10.234375 L 12.203125 0 L 9.5 0 L 7.5625 -6.96875 L 7.359375 -6.96875 Z M 5.5 0 "/></g></g></g><g fill="#5dbfbe" fill-opacity="1"><g transform="translate(123.933818, 687.224985)"><g><path d="M 0.578125 1.75 C 1.003906 1 1.367188 0.253906 1.671875 -0.484375 C 1.984375 -1.234375 2.226562 -2.082031 2.40625 -3.03125 C 2.59375 -3.976562 2.6875 -5.035156 2.6875 -6.203125 C 2.6875 -7.359375 2.59375 -8.410156 2.40625 -9.359375 C 2.226562 -10.316406 1.988281 -11.164062 1.6875 -11.90625 C 1.382812 -12.65625 1.015625 -13.398438 0.578125 -14.140625 L 0.625 -14.34375 L 2.59375 -14.34375 C 3.125 -13.675781 3.59375 -12.972656 4 -12.234375 C 4.40625 -11.503906 4.738281 -10.628906 5 -9.609375 C 5.269531 -8.597656 5.40625 -7.460938 5.40625 -6.203125 C 5.40625 -4.367188 5.144531 -2.8125 4.625 -1.53125 C 4.101562 -0.257812 3.425781 0.894531 2.59375 1.9375 L 0.625 1.9375 Z M 0.578125 1.75 "/></g></g></g></svg>